<svg xmlns="http://www.w3.org/2000/svg" xmlns:xlink="http://www.w3.org/1999/xlink" width="600" height="65.13"><rect width="600" height="65.13" rx="0" ry="0" class="a"/><svg height="65.13" viewBox="0 0 60 6.513" width="600" xmlns="http://www.w3.org/2000/svg" xmlns:xlink="http://www.w3.org/1999/xlink"><style>@keyframes d{0%{transform:translateX(0)}0.13%{transform:translateX(-60px)}2.14%{transform:translateX(-120px)}3.48%{transform:translateX(-180px)}5.49%{transform:translateX(-240px)}6.79%{transform:translateX(-300px)}8.83%{transform:translateX(-360px)}10.17%{transform:translateX(-420px)}12.15%{transform:translateX(-480px)}13.49%{transform:translateX(-540px)}15.49%{transform:translateX(-600px)}16.83%{transform:translateX(-660px)}18.84%{transform:translateX(-720px)}20.18%{transform:translateX(-780px)}22.19%{transform:translateX(-840px)}23.52%{transform:translateX(-900px)}25.53%{transform:translateX(-960px)}26.87%{transform:translateX(-1020px)}28.88%{transform:translateX(-1080px)}30.22%{transform:translateX(-1140px)}32.22%{transform:translateX(-1200px)}33.46%{transform:translateX(-1260px)} to{transform:translateX(-1260px)}}.a{fill:#282d35}.f{fill:#b9c0cb;white-space:pre}</style><g font-family="Monaco,Consolas,Menlo,'Bitstream Vera Sans Mono','Powerline Symbols',monospace" font-size="1.67"><defs><symbol id="a"><path fill="transparent" d="M0 0h60v4H0z"/></symbol></defs><path class="a" d="M0 0h60v6.513H0z"/><g style="animation-duration: 3.0058s;animation-iteration-count:infinite;animation-name:d;animation-timing-function:steps(1,end)"><svg width="1320"><svg><use xlink:href="#a"/></svg><svg x="60"><use xlink:href="#a"/><text y="1.67" class="f">▕▏</text><text x="21.042" y="1.67" class="f">▏</text><text x="23.046" y="1.67" class="f">1/100</text></svg><svg x="120"><use xlink:href="#a"/><text y="1.67" class="f">▕▍</text><text x="21.042" y="1.67" class="f">▏</text><text x="23.046" y="1.67" class="f">2/100</text></svg><svg x="180"><use xlink:href="#a"/><text y="1.67" class="f">▕▌</text><text x="21.042" y="1.67" class="f">▏</text><text x="23.046" y="1.67" class="f">3/100</text></svg><svg x="240"><use xlink:href="#a"/><text y="1.67" class="f">▕▊</text><text x="21.042" y="1.67" class="f">▏</text><text x="23.046" y="1.67" class="f">4/100</text></svg><svg x="300"><use xlink:href="#a"/><text y="1.67" class="f">▕█</text><text x="21.042" y="1.67" class="f">▏</text><text x="23.046" y="1.67" class="f">5/100</text></svg><svg x="360"><use xlink:href="#a"/><text y="1.67" class="f">▕█▏</text><text x="21.042" y="1.67" class="f">▏</text><text x="23.046" y="1.67" class="f">6/100</text></svg><svg x="420"><use xlink:href="#a"/><text y="1.67" class="f">▕█▍</text><text x="21.042" y="1.67" class="f">▏</text><text x="23.046" y="1.67" class="f">7/100</text></svg><svg x="480"><use xlink:href="#a"/><text y="1.67" class="f">▕█▌</text><text x="21.042" y="1.67" class="f">▏</text><text x="23.046" y="1.67" class="f">8/100</text></svg><svg x="540"><use xlink:href="#a"/><text y="1.67" class="f">▕█▊</text><text x="21.042" y="1.67" class="f">▏</text><text x="23.046" y="1.67" class="f">9/100</text></svg><svg x="600"><use xlink:href="#a"/><text y="1.67" class="f">▕██</text><text x="21.042" y="1.67" class="f">▏</text><text x="23.046" y="1.67" class="f">10/100</text></svg><svg x="660"><use xlink:href="#a"/><text y="1.67" class="f">▕██▏</text><text x="21.042" y="1.67" class="f">▏</text><text x="23.046" y="1.67" class="f">11/100</text></svg><svg x="720"><use xlink:href="#a"/><text y="1.67" class="f">▕██▍</text><text x="21.042" y="1.67" class="f">▏</text><text x="23.046" y="1.67" class="f">12/100</text></svg><svg x="780"><use xlink:href="#a"/><text y="1.67" class="f">▕██▌</text><text x="21.042" y="1.67" class="f">▏</text><text x="23.046" y="1.67" class="f">13/100</text></svg><svg x="840"><use xlink:href="#a"/><text y="1.67" class="f">▕██▊</text><text x="21.042" y="1.67" class="f">▏</text><text x="23.046" y="1.67" class="f">14/100</text></svg><svg x="900"><use xlink:href="#a"/><text y="1.67" class="f">▕███</text><text x="21.042" y="1.67" class="f">▏</text><text x="23.046" y="1.67" class="f">15/100</text></svg><svg x="960"><use xlink:href="#a"/><text y="1.67" class="f">▕███▏</text><text x="21.042" y="1.67" class="f">▏</text><text x="23.046" y="1.67" class="f">16/100</text></svg><svg x="1020"><use xlink:href="#a"/><text y="1.67" class="f">▕███▍</text><text x="21.042" y="1.67" class="f">▏</text><text x="23.046" y="1.67" class="f">17/100</text></svg><svg x="1080"><use xlink:href="#a"/><text y="1.67" class="f">▕███▌</text><text x="21.042" y="1.67" class="f">▏</text><text x="23.046" y="1.67" class="f">18/100</text></svg><svg x="1140"><use xlink:href="#a"/><text y="1.67" class="f">▕███▊</text><text x="21.042" y="1.67" class="f">▏</text><text x="23.046" y="1.67" class="f">19/100</text></svg><svg x="1200"><use xlink:href="#a"/><text y="1.67" class="f">▕████</text><text x="21.042" y="1.67" class="f">▏</text><text x="23.046" y="1.67" class="f">20/100</text></svg><svg x="1260"><use xlink:href="#a"/><text y="1.67" class="f">Something</text><text x="10.02" y="1.67" class="f">went</text><text x="15.03" y="1.67" class="f">wrong!</text><text y="3.841" class="f">▕████</text><text x="5.01" y="3.841" style="white-space:pre" fill="#e88388">XXXXXXXXXXXXXXXX</text><text x="21.042" y="3.841" class="f">▏</text><text x="23.046" y="3.841" class="f">21/100</text></svg></svg></g></g></svg></svg>