<svg xmlns="http://www.w3.org/2000/svg" xmlns:xlink="http://www.w3.org/1999/xlink" width="600" height="238.81"><rect width="600" height="238.81" rx="0" ry="0" class="a"/><svg height="238.81" viewBox="0 0 60 23.881" width="600" xmlns="http://www.w3.org/2000/svg" xmlns:xlink="http://www.w3.org/1999/xlink"><style>@keyframes e{0%{transform:translateX(0)}0.1%{transform:translateX(-60px)}0.6%{transform:translateX(-120px)}1.1%{transform:translateX(-180px)}1.61%{transform:translateX(-240px)}2.11%{transform:translateX(-300px)}2.61%{transform:translateX(-360px)}3.11%{transform:translateX(-420px)}3.61%{transform:translateX(-480px)}4.11%{transform:translateX(-540px)}4.62%{transform:translateX(-600px)}5.12%{transform:translateX(-660px)}5.62%{transform:translateX(-720px)}6.62%{transform:translateX(-780px)}7.13%{transform:translateX(-840px)}7.63%{transform:translateX(-900px)}8.13%{transform:translateX(-960px)}8.63%{transform:translateX(-1020px)}9.13%{transform:translateX(-1080px)}9.63%{transform:translateX(-1140px)}10.14%{transform:translateX(-1200px)}10.64%{transform:translateX(-1260px)}11.14%{transform:translateX(-1320px)}11.64%{transform:translateX(-1380px)}12.14%{transform:translateX(-1440px)}13.15%{transform:translateX(-1500px)}13.65%{transform:translateX(-1560px)}14.15%{transform:translateX(-1620px)}14.65%{transform:translateX(-1680px)}15.15%{transform:translateX(-1740px)}15.66%{transform:translateX(-1800px)}16.16%{transform:translateX(-1860px)}16.66%{transform:translateX(-1920px)}17.16%{transform:translateX(-1980px)}17.66%{transform:translateX(-2040px)}18.17%{transform:translateX(-2100px)}18.67%{transform:translateX(-2160px)}19.12%{transform:translateX(-2220px)}19.62%{transform:translateX(-2280px)}20.12%{transform:translateX(-2340px)}20.62%{transform:translateX(-2400px)}21.13%{transform:translateX(-2460px)}22.13%{transform:translateX(-2520px)}22.63%{transform:translateX(-2580px)}23.13%{transform:translateX(-2640px)}23.63%{transform:translateX(-2700px)}24.14%{transform:translateX(-2760px)}24.64%{transform:translateX(-2820px)}25.14%{transform:translateX(-2940px)}25.64%{transform:translateX(-3000px)}26.14%{transform:translateX(-3060px)}26.65%{transform:translateX(-3120px)}27.15%{transform:translateX(-3180px)}27.65%{transform:translateX(-3240px)}28.15%{transform:translateX(-3300px)}28.65%{transform:translateX(-3360px)}29.15%{transform:translateX(-3420px)}29.66%{transform:translateX(-3480px)}30.16%{transform:translateX(-3600px)}30.66%{transform:translateX(-3660px)}31.16%{transform:translateX(-3720px)}31.66%{transform:translateX(-3780px)}32.17%{transform:translateX(-3840px)}32.67%{transform:translateX(-3900px)}33.17%{transform:translateX(-3960px)}33.67%{transform:translateX(-4020px)}34.17%{transform:translateX(-4080px)}34.67%{transform:translateX(-4140px)}35.18%{transform:translateX(-4260px)}35.68%{transform:translateX(-4320px)}36.18%{transform:translateX(-4380px)}36.68%{transform:translateX(-4440px)}37.18%{transform:translateX(-4500px)}37.68%{transform:translateX(-4560px)}38.19%{transform:translateX(-4620px)}38.69%{transform:translateX(-4680px)}39.19%{transform:translateX(-4740px)}39.69%{transform:translateX(-4800px)}40.14%{transform:translateX(-4860px)}40.19%{transform:translateX(-4920px)}40.7%{transform:translateX(-4980px)}41.2%{transform:translateX(-5040px)}41.7%{transform:translateX(-5100px)}42.2%{transform:translateX(-5160px)}42.7%{transform:translateX(-5220px)}43.2%{transform:translateX(-5280px)}43.71%{transform:translateX(-5340px)}44.21%{transform:translateX(-5400px)}44.71%{transform:translateX(-5460px)}45.16%{transform:translateX(-5520px)}45.21%{transform:translateX(-5580px)}45.71%{transform:translateX(-5640px)}46.22%{transform:translateX(-5700px)}46.72%{transform:translateX(-5760px)}47.22%{transform:translateX(-5820px)}47.72%{transform:translateX(-5880px)}48.22%{transform:translateX(-5940px)}48.72%{transform:translateX(-6000px)}49.23%{transform:translateX(-6060px)}49.68%{transform:translateX(-6120px)}50.18%{transform:translateX(-6180px)} to{transform:translateX(-6180px)}}.a{fill:#282d35}.c{fill:#b9c0cb;white-space:pre}</style><g font-family="Monaco,Consolas,Menlo,'Bitstream Vera Sans Mono','Powerline Symbols',monospace" font-size="1.67"><defs><symbol id="1"><text y="1.67" class="c">0</text></symbol><symbol id="2"><text y="1.67" class="c">10</text></symbol><symbol id="3"><text y="1.67" class="c">20</text></symbol><symbol id="4"><text y="1.67" class="c">30</text></symbol><symbol id="5"><text y="1.67" class="c">40</text></symbol><symbol id="6"><text y="1.67" class="c">50</text></symbol><symbol id="7"><text y="1.67" class="c">60</text></symbol><symbol id="8"><text y="1.67" class="c">70</text></symbol><symbol id="9"><text y="1.67" class="c">80</text></symbol><symbol id="10"><text y="1.67" class="c">90</text></symbol><symbol id="11"><text y="1.67" class="c">▕████████████████████▏</text><text x="23.046" y="1.67" class="c">100/100</text></symbol><symbol id="a"><path fill="transparent" d="M0 0h60v12H0z"/></symbol></defs><path class="a" d="M0 0h60v23.881H0z"/><g style="animation-duration: 4.01443s;animation-iteration-count:infinite;animation-name:e;animation-timing-function:steps(1,end)"><svg width="6240"><svg><use xlink:href="#a"/></svg><svg x="60"><use xlink:href="#a"/><use xlink:href="#1"/><text y="3.841" class="c">▕▏</text><text x="21.042" y="3.841" class="c">▏</text><text x="23.046" y="3.841" class="c">1/100</text></svg><svg x="120"><use xlink:href="#a"/><use xlink:href="#1"/><text y="3.841" class="c">▕▍</text><text x="21.042" y="3.841" class="c">▏</text><text x="23.046" y="3.841" class="c">2/100</text></svg><svg x="180"><use xlink:href="#a"/><use xlink:href="#1"/><text y="3.841" class="c">▕▌</text><text x="21.042" y="3.841" class="c">▏</text><text x="23.046" y="3.841" class="c">3/100</text></svg><svg x="240"><use xlink:href="#a"/><use xlink:href="#1"/><text y="3.841" class="c">▕▊</text><text x="21.042" y="3.841" class="c">▏</text><text x="23.046" y="3.841" class="c">4/100</text></svg><svg x="300"><use xlink:href="#a"/><use xlink:href="#1"/><text y="3.841" class="c">▕█</text><text x="21.042" y="3.841" class="c">▏</text><text x="23.046" y="3.841" class="c">5/100</text></svg><svg x="360"><use xlink:href="#a"/><use xlink:href="#1"/><text y="3.841" class="c">▕█▏</text><text x="21.042" y="3.841" class="c">▏</text><text x="23.046" y="3.841" class="c">6/100</text></svg><svg x="420"><use xlink:href="#a"/><use xlink:href="#1"/><text y="3.841" class="c">▕█▍</text><text x="21.042" y="3.841" class="c">▏</text><text x="23.046" y="3.841" class="c">7/100</text></svg><svg x="480"><use xlink:href="#a"/><use xlink:href="#1"/><text y="3.841" class="c">▕█▌</text><text x="21.042" y="3.841" class="c">▏</text><text x="23.046" y="3.841" class="c">8/100</text></svg><svg x="540"><use xlink:href="#a"/><use xlink:href="#1"/><text y="3.841" class="c">▕█▊</text><text x="21.042" y="3.841" class="c">▏</text><text x="23.046" y="3.841" class="c">9/100</text></svg><svg x="600"><use xlink:href="#a"/><use xlink:href="#1"/><text y="3.841" class="c">▕██</text><text x="21.042" y="3.841" class="c">▏</text><text x="23.046" y="3.841" class="c">10/100</text></svg><svg x="660"><use xlink:href="#a"/><use xlink:href="#1"/><use xlink:href="#2" y="2.171"/><text y="6.012" class="c">▕██▏</text><text x="21.042" y="6.012" class="c">▏</text><text x="23.046" y="6.012" class="c">11/100</text></svg><svg x="720"><use xlink:href="#a"/><use xlink:href="#1"/><use xlink:href="#2" y="2.171"/><text y="6.012" class="c">▕██▍</text><text x="21.042" y="6.012" class="c">▏</text><text x="23.046" y="6.012" class="c">12/100</text></svg><svg x="780"><use xlink:href="#a"/><use xlink:href="#1"/><use xlink:href="#2" y="2.171"/><text y="6.012" class="c">▕██▊</text><text x="21.042" y="6.012" class="c">▏</text><text x="23.046" y="6.012" class="c">14/100</text></svg><svg x="840"><use xlink:href="#a"/><use xlink:href="#1"/><use xlink:href="#2" y="2.171"/><text y="6.012" class="c">▕███</text><text x="21.042" y="6.012" class="c">▏</text><text x="23.046" y="6.012" class="c">15/100</text></svg><svg x="900"><use xlink:href="#a"/><use xlink:href="#1"/><use xlink:href="#2" y="2.171"/><text y="6.012" class="c">▕███▏</text><text x="21.042" y="6.012" class="c">▏</text><text x="23.046" y="6.012" class="c">16/100</text></svg><svg x="960"><use xlink:href="#a"/><use xlink:href="#1"/><use xlink:href="#2" y="2.171"/><text y="6.012" class="c">▕███▍</text><text x="21.042" y="6.012" class="c">▏</text><text x="23.046" y="6.012" class="c">17/100</text></svg><svg x="1020"><use xlink:href="#a"/><use xlink:href="#1"/><use xlink:href="#2" y="2.171"/><text y="6.012" class="c">▕███▌</text><text x="21.042" y="6.012" class="c">▏</text><text x="23.046" y="6.012" class="c">18/100</text></svg><svg x="1080"><use xlink:href="#a"/><use xlink:href="#1"/><use xlink:href="#2" y="2.171"/><text y="6.012" class="c">▕███▊</text><text x="21.042" y="6.012" class="c">▏</text><text x="23.046" y="6.012" class="c">19/100</text></svg><svg x="1140"><use xlink:href="#a"/><use xlink:href="#1"/><use xlink:href="#2" y="2.171"/><text y="6.012" class="c">▕████</text><text x="21.042" y="6.012" class="c">▏</text><text x="23.046" y="6.012" class="c">20/100</text></svg><svg x="1200"><use xlink:href="#a"/><use xlink:href="#1"/><use xlink:href="#2" y="2.171"/><use xlink:href="#3" y="4.342"/><text y="8.183" class="c">▕████▏</text><text x="21.042" y="8.183" class="c">▏</text><text x="23.046" y="8.183" class="c">21/100</text></svg><svg x="1260"><use xlink:href="#a"/><use xlink:href="#1"/><use xlink:href="#2" y="2.171"/><use xlink:href="#3" y="4.342"/><text y="8.183" class="c">▕████▍</text><text x="21.042" y="8.183" class="c">▏</text><text x="23.046" y="8.183" class="c">22/100</text></svg><svg x="1320"><use xlink:href="#a"/><use xlink:href="#1"/><use xlink:href="#2" y="2.171"/><use xlink:href="#3" y="4.342"/><text y="8.183" class="c">▕████▌</text><text x="21.042" y="8.183" class="c">▏</text><text x="23.046" y="8.183" class="c">23/100</text></svg><svg x="1380"><use xlink:href="#a"/><use xlink:href="#1"/><use xlink:href="#2" y="2.171"/><use xlink:href="#3" y="4.342"/><text y="8.183" class="c">▕████▊</text><text x="21.042" y="8.183" class="c">▏</text><text x="23.046" y="8.183" class="c">24/100</text></svg><svg x="1440"><use xlink:href="#a"/><use xlink:href="#1"/><use xlink:href="#2" y="2.171"/><use xlink:href="#3" y="4.342"/><text y="8.183" class="c">▕█████</text><text x="21.042" y="8.183" class="c">▏</text><text x="23.046" y="8.183" class="c">25/100</text></svg><svg x="1500"><use xlink:href="#a"/><use xlink:href="#1"/><use xlink:href="#2" y="2.171"/><use xlink:href="#3" y="4.342"/><text y="8.183" class="c">▕█████▏</text><text x="21.042" y="8.183" class="c">▏</text><text x="23.046" y="8.183" class="c">26/100</text></svg><svg x="1560"><use xlink:href="#a"/><use xlink:href="#1"/><use xlink:href="#2" y="2.171"/><use xlink:href="#3" y="4.342"/><text y="8.183" class="c">▕█████▍</text><text x="21.042" y="8.183" class="c">▏</text><text x="23.046" y="8.183" class="c">27/100</text></svg><svg x="1620"><use xlink:href="#a"/><use xlink:href="#1"/><use xlink:href="#2" y="2.171"/><use xlink:href="#3" y="4.342"/><text y="8.183" class="c">▕█████▌</text><text x="21.042" y="8.183" class="c">▏</text><text x="23.046" y="8.183" class="c">28/100</text></svg><svg x="1680"><use xlink:href="#a"/><use xlink:href="#1"/><use xlink:href="#2" y="2.171"/><use xlink:href="#3" y="4.342"/><text y="8.183" class="c">▕█████▊</text><text x="21.042" y="8.183" class="c">▏</text><text x="23.046" y="8.183" class="c">28/100</text></svg><svg x="1740"><use xlink:href="#a"/><use xlink:href="#1"/><use xlink:href="#2" y="2.171"/><use xlink:href="#3" y="4.342"/><use xlink:href="#4" y="6.513"/></svg><svg x="1800"><use xlink:href="#a"/><use xlink:href="#1"/><use xlink:href="#2" y="2.171"/><use xlink:href="#3" y="4.342"/><use xlink:href="#4" y="6.513"/><text y="10.354" class="c">▕██████▏</text><text x="21.042" y="10.354" class="c">▏</text><text x="23.046" y="10.354" class="c">31/100</text></svg><svg x="1860"><use xlink:href="#a"/><use xlink:href="#1"/><use xlink:href="#2" y="2.171"/><use xlink:href="#3" y="4.342"/><use xlink:href="#4" y="6.513"/><text y="10.354" class="c">▕██████▍</text><text x="21.042" y="10.354" class="c">▏</text><text x="23.046" y="10.354" class="c">32/100</text></svg><svg x="1920"><use xlink:href="#a"/><use xlink:href="#1"/><use xlink:href="#2" y="2.171"/><use xlink:href="#3" y="4.342"/><use xlink:href="#4" y="6.513"/><text y="10.354" class="c">▕██████▊</text><text x="21.042" y="10.354" class="c">▏</text><text x="23.046" y="10.354" class="c">34/100</text></svg><svg x="1980"><use xlink:href="#a"/><use xlink:href="#1"/><use xlink:href="#2" y="2.171"/><use xlink:href="#3" y="4.342"/><use xlink:href="#4" y="6.513"/><text y="10.354" class="c">▕███████</text><text x="21.042" y="10.354" class="c">▏</text><text x="23.046" y="10.354" class="c">35/100</text></svg><svg x="2040"><use xlink:href="#a"/><use xlink:href="#1"/><use xlink:href="#2" y="2.171"/><use xlink:href="#3" y="4.342"/><use xlink:href="#4" y="6.513"/><text y="10.354" class="c">▕███████▏</text><text x="21.042" y="10.354" class="c">▏</text><text x="23.046" y="10.354" class="c">36/100</text></svg><svg x="2100"><use xlink:href="#a"/><use xlink:href="#1"/><use xlink:href="#2" y="2.171"/><use xlink:href="#3" y="4.342"/><use xlink:href="#4" y="6.513"/><text y="10.354" class="c">▕███████▍</text><text x="21.042" y="10.354" class="c">▏</text><text x="23.046" y="10.354" class="c">37/100</text></svg><svg x="2160"><use xlink:href="#a"/><use xlink:href="#1"/><use xlink:href="#2" y="2.171"/><use xlink:href="#3" y="4.342"/><use xlink:href="#4" y="6.513"/><text y="10.354" class="c">▕███████▌</text><text x="21.042" y="10.354" class="c">▏</text><text x="23.046" y="10.354" class="c">38/100</text></svg><svg x="2220"><use xlink:href="#a"/><use xlink:href="#1"/><use xlink:href="#2" y="2.171"/><use xlink:href="#3" y="4.342"/><use xlink:href="#4" y="6.513"/><text y="10.354" class="c">▕███████▊</text><text x="21.042" y="10.354" class="c">▏</text><text x="23.046" y="10.354" class="c">39/100</text></svg><svg x="2280"><use xlink:href="#a"/><use xlink:href="#1"/><use xlink:href="#2" y="2.171"/><use xlink:href="#3" y="4.342"/><use xlink:href="#4" y="6.513"/><text y="10.354" class="c">▕████████</text><text x="21.042" y="10.354" class="c">▏</text><text x="23.046" y="10.354" class="c">40/100</text></svg><svg x="2340"><use xlink:href="#a"/><use xlink:href="#1"/><use xlink:href="#2" y="2.171"/><use xlink:href="#3" y="4.342"/><use xlink:href="#4" y="6.513"/><use xlink:href="#5" y="8.684"/><text y="12.525" class="c">▕████████▏</text><text x="21.042" y="12.525" class="c">▏</text><text x="23.046" y="12.525" class="c">41/100</text></svg><svg x="2400"><use xlink:href="#a"/><use xlink:href="#1"/><use xlink:href="#2" y="2.171"/><use xlink:href="#3" y="4.342"/><use xlink:href="#4" y="6.513"/><use xlink:href="#5" y="8.684"/><text y="12.525" class="c">▕████████▍</text><text x="21.042" y="12.525" class="c">▏</text><text x="23.046" y="12.525" class="c">42/100</text></svg><svg x="2460"><use xlink:href="#a"/><use xlink:href="#1"/><use xlink:href="#2" y="2.171"/><use xlink:href="#3" y="4.342"/><use xlink:href="#4" y="6.513"/><use xlink:href="#5" y="8.684"/><text y="12.525" class="c">▕████████▌</text><text x="21.042" y="12.525" class="c">▏</text><text x="23.046" y="12.525" class="c">43/100</text></svg><svg x="2520"><use xlink:href="#a"/><use xlink:href="#1"/><use xlink:href="#2" y="2.171"/><use xlink:href="#3" y="4.342"/><use xlink:href="#4" y="6.513"/><use xlink:href="#5" y="8.684"/><text y="12.525" class="c">▕████████▊</text><text x="21.042" y="12.525" class="c">▏</text><text x="23.046" y="12.525" class="c">44/100</text></svg><svg x="2580"><use xlink:href="#a"/><use xlink:href="#1"/><use xlink:href="#2" y="2.171"/><use xlink:href="#3" y="4.342"/><use xlink:href="#4" y="6.513"/><use xlink:href="#5" y="8.684"/><text y="12.525" class="c">▕█████████</text><text x="21.042" y="12.525" class="c">▏</text><text x="23.046" y="12.525" class="c">45/100</text></svg><svg x="2640"><use xlink:href="#a"/><use xlink:href="#1"/><use xlink:href="#2" y="2.171"/><use xlink:href="#3" y="4.342"/><use xlink:href="#4" y="6.513"/><use xlink:href="#5" y="8.684"/><text y="12.525" class="c">▕█████████▏</text><text x="21.042" y="12.525" class="c">▏</text><text x="23.046" y="12.525" class="c">46/100</text></svg><svg x="2700"><use xlink:href="#a"/><use xlink:href="#1"/><use xlink:href="#2" y="2.171"/><use xlink:href="#3" y="4.342"/><use xlink:href="#4" y="6.513"/><use xlink:href="#5" y="8.684"/><text y="12.525" class="c">▕█████████▌</text><text x="21.042" y="12.525" class="c">▏</text><text x="23.046" y="12.525" class="c">48/100</text></svg><svg x="2760"><use xlink:href="#a"/><use xlink:href="#1"/><use xlink:href="#2" y="2.171"/><use xlink:href="#3" y="4.342"/><use xlink:href="#4" y="6.513"/><use xlink:href="#5" y="8.684"/><text y="12.525" class="c">▕█████████▊</text><text x="21.042" y="12.525" class="c">▏</text><text x="23.046" y="12.525" class="c">49/100</text></svg><svg x="2820"><use xlink:href="#a"/><use xlink:href="#1"/><use xlink:href="#2" y="2.171"/><use xlink:href="#3" y="4.342"/><use xlink:href="#4" y="6.513"/><use xlink:href="#5" y="8.684"/><text y="12.525" class="c">▕██████████</text><text x="21.042" y="12.525" class="c">▏</text><text x="23.046" y="12.525" class="c">50/100</text></svg><svg x="2880"><use xlink:href="#a"/><use xlink:href="#1"/><use xlink:href="#2" y="2.171"/><use xlink:href="#3" y="4.342"/><use xlink:href="#4" y="6.513"/><use xlink:href="#5" y="8.684"/><use xlink:href="#6" y="10.855"/></svg><svg x="2940"><use xlink:href="#a"/><use xlink:href="#1"/><use xlink:href="#2" y="2.171"/><use xlink:href="#3" y="4.342"/><use xlink:href="#4" y="6.513"/><use xlink:href="#5" y="8.684"/><use xlink:href="#6" y="10.855"/><text y="14.696" class="c">▕██████████▏</text><text x="21.042" y="14.696" class="c">▏</text><text x="23.046" y="14.696" class="c">51/100</text></svg><svg x="3000"><use xlink:href="#a"/><use xlink:href="#1"/><use xlink:href="#2" y="2.171"/><use xlink:href="#3" y="4.342"/><use xlink:href="#4" y="6.513"/><use xlink:href="#5" y="8.684"/><use xlink:href="#6" y="10.855"/><text y="14.696" class="c">▕██████████▍</text><text x="21.042" y="14.696" class="c">▏</text><text x="23.046" y="14.696" class="c">52/100</text></svg><svg x="3060"><use xlink:href="#a"/><use xlink:href="#1"/><use xlink:href="#2" y="2.171"/><use xlink:href="#3" y="4.342"/><use xlink:href="#4" y="6.513"/><use xlink:href="#5" y="8.684"/><use xlink:href="#6" y="10.855"/><text y="14.696" class="c">▕██████████▌</text><text x="21.042" y="14.696" class="c">▏</text><text x="23.046" y="14.696" class="c">53/100</text></svg><svg x="3120"><use xlink:href="#a"/><use xlink:href="#1"/><use xlink:href="#2" y="2.171"/><use xlink:href="#3" y="4.342"/><use xlink:href="#4" y="6.513"/><use xlink:href="#5" y="8.684"/><use xlink:href="#6" y="10.855"/><text y="14.696" class="c">▕██████████▊</text><text x="21.042" y="14.696" class="c">▏</text><text x="23.046" y="14.696" class="c">54/100</text></svg><svg x="3180"><use xlink:href="#a"/><use xlink:href="#1"/><use xlink:href="#2" y="2.171"/><use xlink:href="#3" y="4.342"/><use xlink:href="#4" y="6.513"/><use xlink:href="#5" y="8.684"/><use xlink:href="#6" y="10.855"/><text y="14.696" class="c">▕███████████</text><text x="21.042" y="14.696" class="c">▏</text><text x="23.046" y="14.696" class="c">55/100</text></svg><svg x="3240"><use xlink:href="#a"/><use xlink:href="#1"/><use xlink:href="#2" y="2.171"/><use xlink:href="#3" y="4.342"/><use xlink:href="#4" y="6.513"/><use xlink:href="#5" y="8.684"/><use xlink:href="#6" y="10.855"/><text y="14.696" class="c">▕███████████▏</text><text x="21.042" y="14.696" class="c">▏</text><text x="23.046" y="14.696" class="c">56/100</text></svg><svg x="3300"><use xlink:href="#a"/><use xlink:href="#1"/><use xlink:href="#2" y="2.171"/><use xlink:href="#3" y="4.342"/><use xlink:href="#4" y="6.513"/><use xlink:href="#5" y="8.684"/><use xlink:href="#6" y="10.855"/><text y="14.696" class="c">▕███████████▍</text><text x="21.042" y="14.696" class="c">▏</text><text x="23.046" y="14.696" class="c">56/100</text></svg><svg x="3360"><use xlink:href="#a"/><use xlink:href="#1"/><use xlink:href="#2" y="2.171"/><use xlink:href="#3" y="4.342"/><use xlink:href="#4" y="6.513"/><use xlink:href="#5" y="8.684"/><use xlink:href="#6" y="10.855"/><text y="14.696" class="c">▕███████████▌</text><text x="21.042" y="14.696" class="c">▏</text><text x="23.046" y="14.696" class="c">57/100</text></svg><svg x="3420"><use xlink:href="#a"/><use xlink:href="#1"/><use xlink:href="#2" y="2.171"/><use xlink:href="#3" y="4.342"/><use xlink:href="#4" y="6.513"/><use xlink:href="#5" y="8.684"/><use xlink:href="#6" y="10.855"/><text y="14.696" class="c">▕███████████▊</text><text x="21.042" y="14.696" class="c">▏</text><text x="23.046" y="14.696" class="c">59/100</text></svg><svg x="3480"><use xlink:href="#a"/><use xlink:href="#1"/><use xlink:href="#2" y="2.171"/><use xlink:href="#3" y="4.342"/><use xlink:href="#4" y="6.513"/><use xlink:href="#5" y="8.684"/><use xlink:href="#6" y="10.855"/><text y="14.696" class="c">▕████████████</text><text x="21.042" y="14.696" class="c">▏</text><text x="23.046" y="14.696" class="c">60/100</text></svg><svg x="3540"><use xlink:href="#a"/><use xlink:href="#1"/><use xlink:href="#2" y="2.171"/><use xlink:href="#3" y="4.342"/><use xlink:href="#4" y="6.513"/><use xlink:href="#5" y="8.684"/><use xlink:href="#6" y="10.855"/><use xlink:href="#7" y="13.026"/></svg><svg x="3600"><use xlink:href="#a"/><use xlink:href="#1"/><use xlink:href="#2" y="2.171"/><use xlink:href="#3" y="4.342"/><use xlink:href="#4" y="6.513"/><use xlink:href="#5" y="8.684"/><use xlink:href="#6" y="10.855"/><use xlink:href="#7" y="13.026"/><text y="16.867" class="c">▕████████████▏</text><text x="21.042" y="16.867" class="c">▏</text><text x="23.046" y="16.867" class="c">61/100</text></svg><svg x="3660"><use xlink:href="#a"/><use xlink:href="#1"/><use xlink:href="#2" y="2.171"/><use xlink:href="#3" y="4.342"/><use xlink:href="#4" y="6.513"/><use xlink:href="#5" y="8.684"/><use xlink:href="#6" y="10.855"/><use xlink:href="#7" y="13.026"/><text y="16.867" class="c">▕████████████▍</text><text x="21.042" y="16.867" class="c">▏</text><text x="23.046" y="16.867" class="c">62/100</text></svg><svg x="3720"><use xlink:href="#a"/><use xlink:href="#1"/><use xlink:href="#2" y="2.171"/><use xlink:href="#3" y="4.342"/><use xlink:href="#4" y="6.513"/><use xlink:href="#5" y="8.684"/><use xlink:href="#6" y="10.855"/><use xlink:href="#7" y="13.026"/><text y="16.867" class="c">▕████████████▌</text><text x="21.042" y="16.867" class="c">▏</text><text x="23.046" y="16.867" class="c">63/100</text></svg><svg x="3780"><use xlink:href="#a"/><use xlink:href="#1"/><use xlink:href="#2" y="2.171"/><use xlink:href="#3" y="4.342"/><use xlink:href="#4" y="6.513"/><use xlink:href="#5" y="8.684"/><use xlink:href="#6" y="10.855"/><use xlink:href="#7" y="13.026"/><text y="16.867" class="c">▕████████████▊</text><text x="21.042" y="16.867" class="c">▏</text><text x="23.046" y="16.867" class="c">64/100</text></svg><svg x="3840"><use xlink:href="#a"/><use xlink:href="#1"/><use xlink:href="#2" y="2.171"/><use xlink:href="#3" y="4.342"/><use xlink:href="#4" y="6.513"/><use xlink:href="#5" y="8.684"/><use xlink:href="#6" y="10.855"/><use xlink:href="#7" y="13.026"/><text y="16.867" class="c">▕█████████████</text><text x="21.042" y="16.867" class="c">▏</text><text x="23.046" y="16.867" class="c">65/100</text></svg><svg x="3900"><use xlink:href="#a"/><use xlink:href="#1"/><use xlink:href="#2" y="2.171"/><use xlink:href="#3" y="4.342"/><use xlink:href="#4" y="6.513"/><use xlink:href="#5" y="8.684"/><use xlink:href="#6" y="10.855"/><use xlink:href="#7" y="13.026"/><text y="16.867" class="c">▕█████████████▏</text><text x="21.042" y="16.867" class="c">▏</text><text x="23.046" y="16.867" class="c">66/100</text></svg><svg x="3960"><use xlink:href="#a"/><use xlink:href="#1"/><use xlink:href="#2" y="2.171"/><use xlink:href="#3" y="4.342"/><use xlink:href="#4" y="6.513"/><use xlink:href="#5" y="8.684"/><use xlink:href="#6" y="10.855"/><use xlink:href="#7" y="13.026"/><text y="16.867" class="c">▕█████████████▍</text><text x="21.042" y="16.867" class="c">▏</text><text x="23.046" y="16.867" class="c">67/100</text></svg><svg x="4020"><use xlink:href="#a"/><use xlink:href="#1"/><use xlink:href="#2" y="2.171"/><use xlink:href="#3" y="4.342"/><use xlink:href="#4" y="6.513"/><use xlink:href="#5" y="8.684"/><use xlink:href="#6" y="10.855"/><use xlink:href="#7" y="13.026"/><text y="16.867" class="c">▕█████████████▌</text><text x="21.042" y="16.867" class="c">▏</text><text x="23.046" y="16.867" class="c">68/100</text></svg><svg x="4080"><use xlink:href="#a"/><use xlink:href="#1"/><use xlink:href="#2" y="2.171"/><use xlink:href="#3" y="4.342"/><use xlink:href="#4" y="6.513"/><use xlink:href="#5" y="8.684"/><use xlink:href="#6" y="10.855"/><use xlink:href="#7" y="13.026"/><text y="16.867" class="c">▕█████████████▊</text><text x="21.042" y="16.867" class="c">▏</text><text x="23.046" y="16.867" class="c">69/100</text></svg><svg x="4140"><use xlink:href="#a"/><use xlink:href="#1"/><use xlink:href="#2" y="2.171"/><use xlink:href="#3" y="4.342"/><use xlink:href="#4" y="6.513"/><use xlink:href="#5" y="8.684"/><use xlink:href="#6" y="10.855"/><use xlink:href="#7" y="13.026"/><text y="16.867" class="c">▕██████████████</text><text x="21.042" y="16.867" class="c">▏</text><text x="23.046" y="16.867" class="c">70/100</text></svg><svg x="4200"><use xlink:href="#a"/><use xlink:href="#1"/><use xlink:href="#2" y="2.171"/><use xlink:href="#3" y="4.342"/><use xlink:href="#4" y="6.513"/><use xlink:href="#5" y="8.684"/><use xlink:href="#6" y="10.855"/><use xlink:href="#7" y="13.026"/><use xlink:href="#8" y="15.197"/></svg><svg x="4260"><use xlink:href="#a"/><use xlink:href="#1"/><use xlink:href="#2" y="2.171"/><use xlink:href="#3" y="4.342"/><use xlink:href="#4" y="6.513"/><use xlink:href="#5" y="8.684"/><use xlink:href="#6" y="10.855"/><use xlink:href="#7" y="13.026"/><use xlink:href="#8" y="15.197"/><text y="19.038" class="c">▕██████████████▏</text><text x="21.042" y="19.038" class="c">▏</text><text x="23.046" y="19.038" class="c">71/100</text></svg><svg x="4320"><use xlink:href="#a"/><use xlink:href="#1"/><use xlink:href="#2" y="2.171"/><use xlink:href="#3" y="4.342"/><use xlink:href="#4" y="6.513"/><use xlink:href="#5" y="8.684"/><use xlink:href="#6" y="10.855"/><use xlink:href="#7" y="13.026"/><use xlink:href="#8" y="15.197"/><text y="19.038" class="c">▕██████████████▍</text><text x="21.042" y="19.038" class="c">▏</text><text x="23.046" y="19.038" class="c">72/100</text></svg><svg x="4380"><use xlink:href="#a"/><use xlink:href="#1"/><use xlink:href="#2" y="2.171"/><use xlink:href="#3" y="4.342"/><use xlink:href="#4" y="6.513"/><use xlink:href="#5" y="8.684"/><use xlink:href="#6" y="10.855"/><use xlink:href="#7" y="13.026"/><use xlink:href="#8" y="15.197"/><text y="19.038" class="c">▕██████████████▌</text><text x="21.042" y="19.038" class="c">▏</text><text x="23.046" y="19.038" class="c">73/100</text></svg><svg x="4440"><use xlink:href="#a"/><use xlink:href="#1"/><use xlink:href="#2" y="2.171"/><use xlink:href="#3" y="4.342"/><use xlink:href="#4" y="6.513"/><use xlink:href="#5" y="8.684"/><use xlink:href="#6" y="10.855"/><use xlink:href="#7" y="13.026"/><use xlink:href="#8" y="15.197"/><text y="19.038" class="c">▕██████████████▊</text><text x="21.042" y="19.038" class="c">▏</text><text x="23.046" y="19.038" class="c">74/100</text></svg><svg x="4500"><use xlink:href="#a"/><use xlink:href="#1"/><use xlink:href="#2" y="2.171"/><use xlink:href="#3" y="4.342"/><use xlink:href="#4" y="6.513"/><use xlink:href="#5" y="8.684"/><use xlink:href="#6" y="10.855"/><use xlink:href="#7" y="13.026"/><use xlink:href="#8" y="15.197"/><text y="19.038" class="c">▕███████████████</text><text x="21.042" y="19.038" class="c">▏</text><text x="23.046" y="19.038" class="c">75/100</text></svg><svg x="4560"><use xlink:href="#a"/><use xlink:href="#1"/><use xlink:href="#2" y="2.171"/><use xlink:href="#3" y="4.342"/><use xlink:href="#4" y="6.513"/><use xlink:href="#5" y="8.684"/><use xlink:href="#6" y="10.855"/><use xlink:href="#7" y="13.026"/><use xlink:href="#8" y="15.197"/><text y="19.038" class="c">▕███████████████▏</text><text x="21.042" y="19.038" class="c">▏</text><text x="23.046" y="19.038" class="c">76/100</text></svg><svg x="4620"><use xlink:href="#a"/><use xlink:href="#1"/><use xlink:href="#2" y="2.171"/><use xlink:href="#3" y="4.342"/><use xlink:href="#4" y="6.513"/><use xlink:href="#5" y="8.684"/><use xlink:href="#6" y="10.855"/><use xlink:href="#7" y="13.026"/><use xlink:href="#8" y="15.197"/><text y="19.038" class="c">▕███████████████▍</text><text x="21.042" y="19.038" class="c">▏</text><text x="23.046" y="19.038" class="c">77/100</text></svg><svg x="4680"><use xlink:href="#a"/><use xlink:href="#1"/><use xlink:href="#2" y="2.171"/><use xlink:href="#3" y="4.342"/><use xlink:href="#4" y="6.513"/><use xlink:href="#5" y="8.684"/><use xlink:href="#6" y="10.855"/><use xlink:href="#7" y="13.026"/><use xlink:href="#8" y="15.197"/><text y="19.038" class="c">▕███████████████▌</text><text x="21.042" y="19.038" class="c">▏</text><text x="23.046" y="19.038" class="c">78/100</text></svg><svg x="4740"><use xlink:href="#a"/><use xlink:href="#1"/><use xlink:href="#2" y="2.171"/><use xlink:href="#3" y="4.342"/><use xlink:href="#4" y="6.513"/><use xlink:href="#5" y="8.684"/><use xlink:href="#6" y="10.855"/><use xlink:href="#7" y="13.026"/><use xlink:href="#8" y="15.197"/><text y="19.038" class="c">▕███████████████▊</text><text x="21.042" y="19.038" class="c">▏</text><text x="23.046" y="19.038" class="c">79/100</text></svg><svg x="4800"><use xlink:href="#a"/><use xlink:href="#1"/><use xlink:href="#2" y="2.171"/><use xlink:href="#3" y="4.342"/><use xlink:href="#4" y="6.513"/><use xlink:href="#5" y="8.684"/><use xlink:href="#6" y="10.855"/><use xlink:href="#7" y="13.026"/><use xlink:href="#8" y="15.197"/><text y="19.038" class="c">▕████████████████</text><text x="21.042" y="19.038" class="c">▏</text><text x="23.046" y="19.038" class="c">80/100</text></svg><svg x="4860"><use xlink:href="#a"/><use xlink:href="#1"/><use xlink:href="#2" y="2.171"/><use xlink:href="#3" y="4.342"/><use xlink:href="#4" y="6.513"/><use xlink:href="#5" y="8.684"/><use xlink:href="#6" y="10.855"/><use xlink:href="#7" y="13.026"/><use xlink:href="#8" y="15.197"/><use xlink:href="#9" y="17.368"/></svg><svg x="4920"><use xlink:href="#a"/><use xlink:href="#1"/><use xlink:href="#2" y="2.171"/><use xlink:href="#3" y="4.342"/><use xlink:href="#4" y="6.513"/><use xlink:href="#5" y="8.684"/><use xlink:href="#6" y="10.855"/><use xlink:href="#7" y="13.026"/><use xlink:href="#8" y="15.197"/><use xlink:href="#9" y="17.368"/><text y="21.209" class="c">▕████████████████▏</text><text x="21.042" y="21.209" class="c">▏</text><text x="23.046" y="21.209" class="c">81/100</text></svg><svg x="4980"><use xlink:href="#a"/><use xlink:href="#1"/><use xlink:href="#2" y="2.171"/><use xlink:href="#3" y="4.342"/><use xlink:href="#4" y="6.513"/><use xlink:href="#5" y="8.684"/><use xlink:href="#6" y="10.855"/><use xlink:href="#7" y="13.026"/><use xlink:href="#8" y="15.197"/><use xlink:href="#9" y="17.368"/><text y="21.209" class="c">▕████████████████▍</text><text x="21.042" y="21.209" class="c">▏</text><text x="23.046" y="21.209" class="c">82/100</text></svg><svg x="5040"><use xlink:href="#a"/><use xlink:href="#1"/><use xlink:href="#2" y="2.171"/><use xlink:href="#3" y="4.342"/><use xlink:href="#4" y="6.513"/><use xlink:href="#5" y="8.684"/><use xlink:href="#6" y="10.855"/><use xlink:href="#7" y="13.026"/><use xlink:href="#8" y="15.197"/><use xlink:href="#9" y="17.368"/><text y="21.209" class="c">▕████████████████▌</text><text x="21.042" y="21.209" class="c">▏</text><text x="23.046" y="21.209" class="c">83/100</text></svg><svg x="5100"><use xlink:href="#a"/><use xlink:href="#1"/><use xlink:href="#2" y="2.171"/><use xlink:href="#3" y="4.342"/><use xlink:href="#4" y="6.513"/><use xlink:href="#5" y="8.684"/><use xlink:href="#6" y="10.855"/><use xlink:href="#7" y="13.026"/><use xlink:href="#8" y="15.197"/><use xlink:href="#9" y="17.368"/><text y="21.209" class="c">▕████████████████▊</text><text x="21.042" y="21.209" class="c">▏</text><text x="23.046" y="21.209" class="c">84/100</text></svg><svg x="5160"><use xlink:href="#a"/><use xlink:href="#1"/><use xlink:href="#2" y="2.171"/><use xlink:href="#3" y="4.342"/><use xlink:href="#4" y="6.513"/><use xlink:href="#5" y="8.684"/><use xlink:href="#6" y="10.855"/><use xlink:href="#7" y="13.026"/><use xlink:href="#8" y="15.197"/><use xlink:href="#9" y="17.368"/><text y="21.209" class="c">▕█████████████████</text><text x="21.042" y="21.209" class="c">▏</text><text x="23.046" y="21.209" class="c">85/100</text></svg><svg x="5220"><use xlink:href="#a"/><use xlink:href="#1"/><use xlink:href="#2" y="2.171"/><use xlink:href="#3" y="4.342"/><use xlink:href="#4" y="6.513"/><use xlink:href="#5" y="8.684"/><use xlink:href="#6" y="10.855"/><use xlink:href="#7" y="13.026"/><use xlink:href="#8" y="15.197"/><use xlink:href="#9" y="17.368"/><text y="21.209" class="c">▕█████████████████▏</text><text x="21.042" y="21.209" class="c">▏</text><text x="23.046" y="21.209" class="c">86/100</text></svg><svg x="5280"><use xlink:href="#a"/><use xlink:href="#1"/><use xlink:href="#2" y="2.171"/><use xlink:href="#3" y="4.342"/><use xlink:href="#4" y="6.513"/><use xlink:href="#5" y="8.684"/><use xlink:href="#6" y="10.855"/><use xlink:href="#7" y="13.026"/><use xlink:href="#8" y="15.197"/><use xlink:href="#9" y="17.368"/><text y="21.209" class="c">▕█████████████████▍</text><text x="21.042" y="21.209" class="c">▏</text><text x="23.046" y="21.209" class="c">87/100</text></svg><svg x="5340"><use xlink:href="#a"/><use xlink:href="#1"/><use xlink:href="#2" y="2.171"/><use xlink:href="#3" y="4.342"/><use xlink:href="#4" y="6.513"/><use xlink:href="#5" y="8.684"/><use xlink:href="#6" y="10.855"/><use xlink:href="#7" y="13.026"/><use xlink:href="#8" y="15.197"/><use xlink:href="#9" y="17.368"/><text y="21.209" class="c">▕█████████████████▌</text><text x="21.042" y="21.209" class="c">▏</text><text x="23.046" y="21.209" class="c">88/100</text></svg><svg x="5400"><use xlink:href="#a"/><use xlink:href="#1"/><use xlink:href="#2" y="2.171"/><use xlink:href="#3" y="4.342"/><use xlink:href="#4" y="6.513"/><use xlink:href="#5" y="8.684"/><use xlink:href="#6" y="10.855"/><use xlink:href="#7" y="13.026"/><use xlink:href="#8" y="15.197"/><use xlink:href="#9" y="17.368"/><text y="21.209" class="c">▕█████████████████▊</text><text x="21.042" y="21.209" class="c">▏</text><text x="23.046" y="21.209" class="c">89/100</text></svg><svg x="5460"><use xlink:href="#a"/><use xlink:href="#1"/><use xlink:href="#2" y="2.171"/><use xlink:href="#3" y="4.342"/><use xlink:href="#4" y="6.513"/><use xlink:href="#5" y="8.684"/><use xlink:href="#6" y="10.855"/><use xlink:href="#7" y="13.026"/><use xlink:href="#8" y="15.197"/><use xlink:href="#9" y="17.368"/><text y="21.209" class="c">▕██████████████████</text><text x="21.042" y="21.209" class="c">▏</text><text x="23.046" y="21.209" class="c">90/100</text></svg><svg x="5520"><use xlink:href="#a"/><use xlink:href="#1"/><use xlink:href="#2" y="2.171"/><use xlink:href="#3" y="4.342"/><use xlink:href="#4" y="6.513"/><use xlink:href="#5" y="8.684"/><use xlink:href="#6" y="10.855"/><use xlink:href="#7" y="13.026"/><use xlink:href="#8" y="15.197"/><use xlink:href="#9" y="17.368"/><use xlink:href="#10" y="19.539"/></svg><svg x="5580"><use xlink:href="#a"/><use xlink:href="#1"/><use xlink:href="#2" y="2.171"/><use xlink:href="#3" y="4.342"/><use xlink:href="#4" y="6.513"/><use xlink:href="#5" y="8.684"/><use xlink:href="#6" y="10.855"/><use xlink:href="#7" y="13.026"/><use xlink:href="#8" y="15.197"/><use xlink:href="#9" y="17.368"/><use xlink:href="#10" y="19.539"/><text y="23.38" class="c">▕██████████████████▏</text><text x="21.042" y="23.38" class="c">▏</text><text x="23.046" y="23.38" class="c">91/100</text></svg><svg x="5640"><use xlink:href="#a"/><use xlink:href="#1"/><use xlink:href="#2" y="2.171"/><use xlink:href="#3" y="4.342"/><use xlink:href="#4" y="6.513"/><use xlink:href="#5" y="8.684"/><use xlink:href="#6" y="10.855"/><use xlink:href="#7" y="13.026"/><use xlink:href="#8" y="15.197"/><use xlink:href="#9" y="17.368"/><use xlink:href="#10" y="19.539"/><text y="23.38" class="c">▕██████████████████▍</text><text x="21.042" y="23.38" class="c">▏</text><text x="23.046" y="23.38" class="c">92/100</text></svg><svg x="5700"><use xlink:href="#a"/><use xlink:href="#1"/><use xlink:href="#2" y="2.171"/><use xlink:href="#3" y="4.342"/><use xlink:href="#4" y="6.513"/><use xlink:href="#5" y="8.684"/><use xlink:href="#6" y="10.855"/><use xlink:href="#7" y="13.026"/><use xlink:href="#8" y="15.197"/><use xlink:href="#9" y="17.368"/><use xlink:href="#10" y="19.539"/><text y="23.38" class="c">▕██████████████████▌</text><text x="21.042" y="23.38" class="c">▏</text><text x="23.046" y="23.38" class="c">93/100</text></svg><svg x="5760"><use xlink:href="#a"/><use xlink:href="#1"/><use xlink:href="#2" y="2.171"/><use xlink:href="#3" y="4.342"/><use xlink:href="#4" y="6.513"/><use xlink:href="#5" y="8.684"/><use xlink:href="#6" y="10.855"/><use xlink:href="#7" y="13.026"/><use xlink:href="#8" y="15.197"/><use xlink:href="#9" y="17.368"/><use xlink:href="#10" y="19.539"/><text y="23.38" class="c">▕██████████████████▊</text><text x="21.042" y="23.38" class="c">▏</text><text x="23.046" y="23.38" class="c">94/100</text></svg><svg x="5820"><use xlink:href="#a"/><use xlink:href="#1"/><use xlink:href="#2" y="2.171"/><use xlink:href="#3" y="4.342"/><use xlink:href="#4" y="6.513"/><use xlink:href="#5" y="8.684"/><use xlink:href="#6" y="10.855"/><use xlink:href="#7" y="13.026"/><use xlink:href="#8" y="15.197"/><use xlink:href="#9" y="17.368"/><use xlink:href="#10" y="19.539"/><text y="23.38" class="c">▕███████████████████</text><text x="21.042" y="23.38" class="c">▏</text><text x="23.046" y="23.38" class="c">95/100</text></svg><svg x="5880"><use xlink:href="#a"/><use xlink:href="#1"/><use xlink:href="#2" y="2.171"/><use xlink:href="#3" y="4.342"/><use xlink:href="#4" y="6.513"/><use xlink:href="#5" y="8.684"/><use xlink:href="#6" y="10.855"/><use xlink:href="#7" y="13.026"/><use xlink:href="#8" y="15.197"/><use xlink:href="#9" y="17.368"/><use xlink:href="#10" y="19.539"/><text y="23.38" class="c">▕███████████████████▏▏</text><text x="23.046" y="23.38" class="c">96/100</text></svg><svg x="5940"><use xlink:href="#a"/><use xlink:href="#1"/><use xlink:href="#2" y="2.171"/><use xlink:href="#3" y="4.342"/><use xlink:href="#4" y="6.513"/><use xlink:href="#5" y="8.684"/><use xlink:href="#6" y="10.855"/><use xlink:href="#7" y="13.026"/><use xlink:href="#8" y="15.197"/><use xlink:href="#9" y="17.368"/><use xlink:href="#10" y="19.539"/><text y="23.38" class="c">▕███████████████████▍▏</text><text x="23.046" y="23.38" class="c">97/100</text></svg><svg x="6000"><use xlink:href="#a"/><use xlink:href="#1"/><use xlink:href="#2" y="2.171"/><use xlink:href="#3" y="4.342"/><use xlink:href="#4" y="6.513"/><use xlink:href="#5" y="8.684"/><use xlink:href="#6" y="10.855"/><use xlink:href="#7" y="13.026"/><use xlink:href="#8" y="15.197"/><use xlink:href="#9" y="17.368"/><use xlink:href="#10" y="19.539"/><text y="23.38" class="c">▕███████████████████▌▏</text><text x="23.046" y="23.38" class="c">98/100</text></svg><svg x="6060"><use xlink:href="#a"/><use xlink:href="#1"/><use xlink:href="#2" y="2.171"/><use xlink:href="#3" y="4.342"/><use xlink:href="#4" y="6.513"/><use xlink:href="#5" y="8.684"/><use xlink:href="#6" y="10.855"/><use xlink:href="#7" y="13.026"/><use xlink:href="#8" y="15.197"/><use xlink:href="#9" y="17.368"/><use xlink:href="#10" y="19.539"/><text y="23.38" class="c">▕███████████████████▊▏</text><text x="23.046" y="23.38" class="c">99/100</text></svg><svg x="6120"><use xlink:href="#a"/><use xlink:href="#1"/><use xlink:href="#2" y="2.171"/><use xlink:href="#3" y="4.342"/><use xlink:href="#4" y="6.513"/><use xlink:href="#5" y="8.684"/><use xlink:href="#6" y="10.855"/><use xlink:href="#7" y="13.026"/><use xlink:href="#8" y="15.197"/><use xlink:href="#9" y="17.368"/><use xlink:href="#10" y="19.539"/><use xlink:href="#11" y="21.71"/></svg><svg x="6180"><use xlink:href="#a"/><use xlink:href="#1"/><use xlink:href="#2" y="2.171"/><use xlink:href="#3" y="4.342"/><use xlink:href="#4" y="6.513"/><use xlink:href="#5" y="8.684"/><use xlink:href="#6" y="10.855"/><use xlink:href="#7" y="13.026"/><use xlink:href="#8" y="15.197"/><use xlink:href="#9" y="17.368"/><use xlink:href="#10" y="19.539"/><use xlink:href="#11" y="21.71"/></svg></svg></g></g></svg></svg>