<svg xmlns="http://www.w3.org/2000/svg" xmlns:xlink="http://www.w3.org/1999/xlink" width="600" height="21.71"><rect width="600" height="21.71" rx="0" ry="0" class="a"/><svg height="21.71" viewBox="0 0 60 2.171" width="600" xmlns="http://www.w3.org/2000/svg" xmlns:xlink="http://www.w3.org/1999/xlink"><style>@keyframes e{0%{transform:translateX(-60px)}0.93%{transform:translateX(-120px)}1.5%{transform:translateX(-180px)}2.36%{transform:translateX(-240px)}2.93%{transform:translateX(-300px)}3.79%{transform:translateX(-360px)}4.36%{transform:translateX(-420px)}5.22%{transform:translateX(-480px)}5.79%{transform:translateX(-540px)}6.65%{transform:translateX(-600px)}7.22%{transform:translateX(-660px)}8.08%{transform:translateX(-720px)}8.65%{transform:translateX(-780px)}9.51%{transform:translateX(-840px)}10.08%{transform:translateX(-900px)}10.94%{transform:translateX(-960px)}11.51%{transform:translateX(-1020px)}12.37%{transform:translateX(-1080px)}12.94%{transform:translateX(-1140px)}13.8%{transform:translateX(-1200px)}14.37%{transform:translateX(-1260px)}15.22%{transform:translateX(-1320px)}15.8%{transform:translateX(-1380px)}16.65%{transform:translateX(-1440px)}17.23%{transform:translateX(-1500px)}18.08%{transform:translateX(-1560px)}18.66%{transform:translateX(-1620px)}19.51%{transform:translateX(-1680px)}20.09%{transform:translateX(-1740px)}20.94%{transform:translateX(-1800px)}21.51%{transform:translateX(-1860px)}22.37%{transform:translateX(-1920px)}22.94%{transform:translateX(-1980px)}23.8%{transform:translateX(-2040px)}24.37%{transform:translateX(-2100px)}25.3%{transform:translateX(-2160px)}25.87%{transform:translateX(-2220px)}26.73%{transform:translateX(-2280px)}27.3%{transform:translateX(-2340px)}28.16%{transform:translateX(-2400px)}28.73%{transform:translateX(-2460px)}29.59%{transform:translateX(-2520px)}30.16%{transform:translateX(-2580px)}31.02%{transform:translateX(-2640px)}31.59%{transform:translateX(-2700px)}32.45%{transform:translateX(-2760px)}33.02%{transform:translateX(-2820px)}33.88%{transform:translateX(-2880px)}34.45%{transform:translateX(-2940px)}35.31%{transform:translateX(-3000px)}35.88%{transform:translateX(-3060px)}36.74%{transform:translateX(-3120px)}37.31%{transform:translateX(-3180px)}38.17%{transform:translateX(-3240px)}38.74%{transform:translateX(-3300px)}39.6%{transform:translateX(-3360px)}40.17%{transform:translateX(-3420px)}41.03%{transform:translateX(-3480px)}41.6%{transform:translateX(-3540px)}42.46%{transform:translateX(-3600px)}43.03%{transform:translateX(-3660px)}43.89%{transform:translateX(-3720px)}44.46%{transform:translateX(-3780px)}45.32%{transform:translateX(-3840px)}45.89%{transform:translateX(-3900px)}46.75%{transform:translateX(-3960px)}47.32%{transform:translateX(-4020px)}48.18%{transform:translateX(-4080px)}48.75%{transform:translateX(-4140px)}49.32%{transform:translateX(-4200px)}50.18%{transform:translateX(-4260px)}50.75%{transform:translateX(-4320px)}51.61%{transform:translateX(-4380px)}52.18%{transform:translateX(-4440px)}53.04%{transform:translateX(-4500px)}53.61%{transform:translateX(-4560px)}54.47%{transform:translateX(-4620px)}55.04%{transform:translateX(-4680px)}55.89%{transform:translateX(-4740px)}56.47%{transform:translateX(-4800px)}57.32%{transform:translateX(-4860px)}57.97%{transform:translateX(-4920px)}58.83%{transform:translateX(-4980px)}59.4%{transform:translateX(-5040px)}60.26%{transform:translateX(-5100px)}60.83%{transform:translateX(-5160px)}61.68%{transform:translateX(-5220px)}62.26%{transform:translateX(-5280px)}63.11%{transform:translateX(-5340px)}63.69%{transform:translateX(-5400px)}64.54%{transform:translateX(-5460px)}65.12%{transform:translateX(-5520px)}65.97%{transform:translateX(-5580px)}66.54%{transform:translateX(-5640px)}67.4%{transform:translateX(-5700px)}67.97%{transform:translateX(-5760px)}68.83%{transform:translateX(-5820px)}69.4%{transform:translateX(-5880px)}70.26%{transform:translateX(-5940px)}70.83%{transform:translateX(-6000px)}71.48%{transform:translateX(-6060px)} to{transform:translateX(-6060px)}}.a{fill:#282d35}.c{fill:#b9c0cb;white-space:pre}</style><g font-family="Monaco,Consolas,Menlo,'Bitstream Vera Sans Mono','Powerline Symbols',monospace" font-size="1.67"><defs><symbol id="1"><text y="1.67" class="c">▕████████████████████▏</text><text x="23.046" y="1.67" class="c">100/100</text></symbol><symbol id="a"><path fill="transparent" d="M0 0h60v2H0z"/></symbol></defs><path class="a" d="M0 0h60v2.171H0z"/><g style="animation-duration: 7.011856s;animation-iteration-count:infinite;animation-name:e;animation-timing-function:steps(1,end)"><svg width="6120"><svg><use xlink:href="#a"/></svg><svg x="60"><use xlink:href="#a"/><text y="1.67" class="c">▕▏</text><text x="21.042" y="1.67" class="c">▏</text><text x="23.046" y="1.67" class="c">1/100</text></svg><svg x="120"><use xlink:href="#a"/><text y="1.67" class="c">▕▍</text><text x="21.042" y="1.67" class="c">▏</text><text x="23.046" y="1.67" class="c">2/100</text></svg><svg x="180"><use xlink:href="#a"/><text y="1.67" class="c">▕▌</text><text x="21.042" y="1.67" class="c">▏</text><text x="23.046" y="1.67" class="c">3/100</text></svg><svg x="240"><use xlink:href="#a"/><text y="1.67" class="c">▕▊</text><text x="21.042" y="1.67" class="c">▏</text><text x="23.046" y="1.67" class="c">4/100</text></svg><svg x="300"><use xlink:href="#a"/><text y="1.67" class="c">▕█</text><text x="21.042" y="1.67" class="c">▏</text><text x="23.046" y="1.67" class="c">5/100</text></svg><svg x="360"><use xlink:href="#a"/><text y="1.67" class="c">▕█▏</text><text x="21.042" y="1.67" class="c">▏</text><text x="23.046" y="1.67" class="c">6/100</text></svg><svg x="420"><use xlink:href="#a"/><text y="1.67" class="c">▕█▍</text><text x="21.042" y="1.67" class="c">▏</text><text x="23.046" y="1.67" class="c">7/100</text></svg><svg x="480"><use xlink:href="#a"/><text y="1.67" class="c">▕█▌</text><text x="21.042" y="1.67" class="c">▏</text><text x="23.046" y="1.67" class="c">8/100</text></svg><svg x="540"><use xlink:href="#a"/><text y="1.67" class="c">▕█▊</text><text x="21.042" y="1.67" class="c">▏</text><text x="23.046" y="1.67" class="c">9/100</text></svg><svg x="600"><use xlink:href="#a"/><text y="1.67" class="c">▕██</text><text x="21.042" y="1.67" class="c">▏</text><text x="23.046" y="1.67" class="c">10/100</text></svg><svg x="660"><use xlink:href="#a"/><text y="1.67" class="c">▕██▏</text><text x="21.042" y="1.67" class="c">▏</text><text x="23.046" y="1.67" class="c">11/100</text></svg><svg x="720"><use xlink:href="#a"/><text y="1.67" class="c">▕██▍</text><text x="21.042" y="1.67" class="c">▏</text><text x="23.046" y="1.67" class="c">12/100</text></svg><svg x="780"><use xlink:href="#a"/><text y="1.67" class="c">▕██▌</text><text x="21.042" y="1.67" class="c">▏</text><text x="23.046" y="1.67" class="c">13/100</text></svg><svg x="840"><use xlink:href="#a"/><text y="1.67" class="c">▕██▊</text><text x="21.042" y="1.67" class="c">▏</text><text x="23.046" y="1.67" class="c">14/100</text></svg><svg x="900"><use xlink:href="#a"/><text y="1.67" class="c">▕███</text><text x="21.042" y="1.67" class="c">▏</text><text x="23.046" y="1.67" class="c">15/100</text></svg><svg x="960"><use xlink:href="#a"/><text y="1.67" class="c">▕███▏</text><text x="21.042" y="1.67" class="c">▏</text><text x="23.046" y="1.67" class="c">16/100</text></svg><svg x="1020"><use xlink:href="#a"/><text y="1.67" class="c">▕███▍</text><text x="21.042" y="1.67" class="c">▏</text><text x="23.046" y="1.67" class="c">17/100</text></svg><svg x="1080"><use xlink:href="#a"/><text y="1.67" class="c">▕███▌</text><text x="21.042" y="1.67" class="c">▏</text><text x="23.046" y="1.67" class="c">18/100</text></svg><svg x="1140"><use xlink:href="#a"/><text y="1.67" class="c">▕███▊</text><text x="21.042" y="1.67" class="c">▏</text><text x="23.046" y="1.67" class="c">19/100</text></svg><svg x="1200"><use xlink:href="#a"/><text y="1.67" class="c">▕████</text><text x="21.042" y="1.67" class="c">▏</text><text x="23.046" y="1.67" class="c">20/100</text></svg><svg x="1260"><use xlink:href="#a"/><text y="1.67" class="c">▕████▏</text><text x="21.042" y="1.67" class="c">▏</text><text x="23.046" y="1.67" class="c">21/100</text></svg><svg x="1320"><use xlink:href="#a"/><text y="1.67" class="c">▕████▍</text><text x="21.042" y="1.67" class="c">▏</text><text x="23.046" y="1.67" class="c">22/100</text></svg><svg x="1380"><use xlink:href="#a"/><text y="1.67" class="c">▕████▌</text><text x="21.042" y="1.67" class="c">▏</text><text x="23.046" y="1.67" class="c">23/100</text></svg><svg x="1440"><use xlink:href="#a"/><text y="1.67" class="c">▕████▊</text><text x="21.042" y="1.67" class="c">▏</text><text x="23.046" y="1.67" class="c">24/100</text></svg><svg x="1500"><use xlink:href="#a"/><text y="1.67" class="c">▕█████</text><text x="21.042" y="1.67" class="c">▏</text><text x="23.046" y="1.67" class="c">25/100</text></svg><svg x="1560"><use xlink:href="#a"/><text y="1.67" class="c">▕█████▏</text><text x="21.042" y="1.67" class="c">▏</text><text x="23.046" y="1.67" class="c">26/100</text></svg><svg x="1620"><use xlink:href="#a"/><text y="1.67" class="c">▕█████▍</text><text x="21.042" y="1.67" class="c">▏</text><text x="23.046" y="1.67" class="c">27/100</text></svg><svg x="1680"><use xlink:href="#a"/><text y="1.67" class="c">▕█████▌</text><text x="21.042" y="1.67" class="c">▏</text><text x="23.046" y="1.67" class="c">28/100</text></svg><svg x="1740"><use xlink:href="#a"/><text y="1.67" class="c">▕█████▊</text><text x="21.042" y="1.67" class="c">▏</text><text x="23.046" y="1.67" class="c">28/100</text></svg><svg x="1800"><use xlink:href="#a"/><text y="1.67" class="c">▕██████</text><text x="21.042" y="1.67" class="c">▏</text><text x="23.046" y="1.67" class="c">30/100</text></svg><svg x="1860"><use xlink:href="#a"/><text y="1.67" class="c">▕██████▏</text><text x="21.042" y="1.67" class="c">▏</text><text x="23.046" y="1.67" class="c">31/100</text></svg><svg x="1920"><use xlink:href="#a"/><text y="1.67" class="c">▕██████▍</text><text x="21.042" y="1.67" class="c">▏</text><text x="23.046" y="1.67" class="c">32/100</text></svg><svg x="1980"><use xlink:href="#a"/><text y="1.67" class="c">▕██████▌</text><text x="21.042" y="1.67" class="c">▏</text><text x="23.046" y="1.67" class="c">33/100</text></svg><svg x="2040"><use xlink:href="#a"/><text y="1.67" class="c">▕██████▊</text><text x="21.042" y="1.67" class="c">▏</text><text x="23.046" y="1.67" class="c">34/100</text></svg><svg x="2100"><use xlink:href="#a"/><text y="1.67" class="c">▕███████</text><text x="21.042" y="1.67" class="c">▏</text><text x="23.046" y="1.67" class="c">35/100</text></svg><svg x="2160"><use xlink:href="#a"/><text y="1.67" class="c">▕███████▏</text><text x="21.042" y="1.67" class="c">▏</text><text x="23.046" y="1.67" class="c">36/100</text></svg><svg x="2220"><use xlink:href="#a"/><text y="1.67" class="c">▕███████▍</text><text x="21.042" y="1.67" class="c">▏</text><text x="23.046" y="1.67" class="c">37/100</text></svg><svg x="2280"><use xlink:href="#a"/><text y="1.67" class="c">▕███████▌</text><text x="21.042" y="1.67" class="c">▏</text><text x="23.046" y="1.67" class="c">38/100</text></svg><svg x="2340"><use xlink:href="#a"/><text y="1.67" class="c">▕███████▊</text><text x="21.042" y="1.67" class="c">▏</text><text x="23.046" y="1.67" class="c">39/100</text></svg><svg x="2400"><use xlink:href="#a"/><text y="1.67" class="c">▕████████</text><text x="21.042" y="1.67" class="c">▏</text><text x="23.046" y="1.67" class="c">40/100</text></svg><svg x="2460"><use xlink:href="#a"/><text y="1.67" class="c">▕████████▏</text><text x="21.042" y="1.67" class="c">▏</text><text x="23.046" y="1.67" class="c">41/100</text></svg><svg x="2520"><use xlink:href="#a"/><text y="1.67" class="c">▕████████▍</text><text x="21.042" y="1.67" class="c">▏</text><text x="23.046" y="1.67" class="c">42/100</text></svg><svg x="2580"><use xlink:href="#a"/><text y="1.67" class="c">▕████████▌</text><text x="21.042" y="1.67" class="c">▏</text><text x="23.046" y="1.67" class="c">43/100</text></svg><svg x="2640"><use xlink:href="#a"/><text y="1.67" class="c">▕████████▊</text><text x="21.042" y="1.67" class="c">▏</text><text x="23.046" y="1.67" class="c">44/100</text></svg><svg x="2700"><use xlink:href="#a"/><text y="1.67" class="c">▕█████████</text><text x="21.042" y="1.67" class="c">▏</text><text x="23.046" y="1.67" class="c">45/100</text></svg><svg x="2760"><use xlink:href="#a"/><text y="1.67" class="c">▕█████████▏</text><text x="21.042" y="1.67" class="c">▏</text><text x="23.046" y="1.67" class="c">46/100</text></svg><svg x="2820"><use xlink:href="#a"/><text y="1.67" class="c">▕█████████▍</text><text x="21.042" y="1.67" class="c">▏</text><text x="23.046" y="1.67" class="c">47/100</text></svg><svg x="2880"><use xlink:href="#a"/><text y="1.67" class="c">▕█████████▌</text><text x="21.042" y="1.67" class="c">▏</text><text x="23.046" y="1.67" class="c">48/100</text></svg><svg x="2940"><use xlink:href="#a"/><text y="1.67" class="c">▕█████████▊</text><text x="21.042" y="1.67" class="c">▏</text><text x="23.046" y="1.67" class="c">49/100</text></svg><svg x="3000"><use xlink:href="#a"/><text y="1.67" class="c">▕██████████</text><text x="21.042" y="1.67" class="c">▏</text><text x="23.046" y="1.67" class="c">50/100</text></svg><svg x="3060"><use xlink:href="#a"/><text y="1.67" class="c">▕██████████▏</text><text x="21.042" y="1.67" class="c">▏</text><text x="23.046" y="1.67" class="c">51/100</text></svg><svg x="3120"><use xlink:href="#a"/><text y="1.67" class="c">▕██████████▍</text><text x="21.042" y="1.67" class="c">▏</text><text x="23.046" y="1.67" class="c">52/100</text></svg><svg x="3180"><use xlink:href="#a"/><text y="1.67" class="c">▕██████████▌</text><text x="21.042" y="1.67" class="c">▏</text><text x="23.046" y="1.67" class="c">53/100</text></svg><svg x="3240"><use xlink:href="#a"/><text y="1.67" class="c">▕██████████▊</text><text x="21.042" y="1.67" class="c">▏</text><text x="23.046" y="1.67" class="c">54/100</text></svg><svg x="3300"><use xlink:href="#a"/><text y="1.67" class="c">▕███████████</text><text x="21.042" y="1.67" class="c">▏</text><text x="23.046" y="1.67" class="c">55/100</text></svg><svg x="3360"><use xlink:href="#a"/><text y="1.67" class="c">▕███████████▏</text><text x="21.042" y="1.67" class="c">▏</text><text x="23.046" y="1.67" class="c">56/100</text></svg><svg x="3420"><use xlink:href="#a"/><text y="1.67" class="c">▕███████████▍</text><text x="21.042" y="1.67" class="c">▏</text><text x="23.046" y="1.67" class="c">56/100</text></svg><svg x="3480"><use xlink:href="#a"/><text y="1.67" class="c">▕███████████▌</text><text x="21.042" y="1.67" class="c">▏</text><text x="23.046" y="1.67" class="c">57/100</text></svg><svg x="3540"><use xlink:href="#a"/><text y="1.67" class="c">▕███████████▊</text><text x="21.042" y="1.67" class="c">▏</text><text x="23.046" y="1.67" class="c">59/100</text></svg><svg x="3600"><use xlink:href="#a"/><text y="1.67" class="c">▕████████████</text><text x="21.042" y="1.67" class="c">▏</text><text x="23.046" y="1.67" class="c">60/100</text></svg><svg x="3660"><use xlink:href="#a"/><text y="1.67" class="c">▕████████████▏</text><text x="21.042" y="1.67" class="c">▏</text><text x="23.046" y="1.67" class="c">61/100</text></svg><svg x="3720"><use xlink:href="#a"/><text y="1.67" class="c">▕████████████▍</text><text x="21.042" y="1.67" class="c">▏</text><text x="23.046" y="1.67" class="c">62/100</text></svg><svg x="3780"><use xlink:href="#a"/><text y="1.67" class="c">▕████████████▌</text><text x="21.042" y="1.67" class="c">▏</text><text x="23.046" y="1.67" class="c">63/100</text></svg><svg x="3840"><use xlink:href="#a"/><text y="1.67" class="c">▕████████████▊</text><text x="21.042" y="1.67" class="c">▏</text><text x="23.046" y="1.67" class="c">64/100</text></svg><svg x="3900"><use xlink:href="#a"/><text y="1.67" class="c">▕█████████████</text><text x="21.042" y="1.67" class="c">▏</text><text x="23.046" y="1.67" class="c">65/100</text></svg><svg x="3960"><use xlink:href="#a"/><text y="1.67" class="c">▕█████████████▏</text><text x="21.042" y="1.67" class="c">▏</text><text x="23.046" y="1.67" class="c">66/100</text></svg><svg x="4020"><use xlink:href="#a"/><text y="1.67" class="c">▕█████████████▍</text><text x="21.042" y="1.67" class="c">▏</text><text x="23.046" y="1.67" class="c">67/100</text></svg><svg x="4080"><use xlink:href="#a"/><text y="1.67" class="c">▕█████████████▌</text><text x="21.042" y="1.67" class="c">▏</text><text x="23.046" y="1.67" class="c">68/100</text></svg><svg x="4140"><use xlink:href="#a"/><text y="1.67" class="c">▕█████████████▊</text><text x="21.042" y="1.67" class="c">▏</text><text x="23.046" y="1.67" class="c">69/100</text></svg><svg x="4200"><use xlink:href="#a"/><text y="1.67" class="c">▕██████████████</text><text x="21.042" y="1.67" class="c">▏</text><text x="23.046" y="1.67" class="c">70/100</text></svg><svg x="4260"><use xlink:href="#a"/><text y="1.67" class="c">▕██████████████▏</text><text x="21.042" y="1.67" class="c">▏</text><text x="23.046" y="1.67" class="c">71/100</text></svg><svg x="4320"><use xlink:href="#a"/><text y="1.67" class="c">▕██████████████▍</text><text x="21.042" y="1.67" class="c">▏</text><text x="23.046" y="1.67" class="c">72/100</text></svg><svg x="4380"><use xlink:href="#a"/><text y="1.67" class="c">▕██████████████▌</text><text x="21.042" y="1.67" class="c">▏</text><text x="23.046" y="1.67" class="c">73/100</text></svg><svg x="4440"><use xlink:href="#a"/><text y="1.67" class="c">▕██████████████▊</text><text x="21.042" y="1.67" class="c">▏</text><text x="23.046" y="1.67" class="c">74/100</text></svg><svg x="4500"><use xlink:href="#a"/><text y="1.67" class="c">▕███████████████</text><text x="21.042" y="1.67" class="c">▏</text><text x="23.046" y="1.67" class="c">75/100</text></svg><svg x="4560"><use xlink:href="#a"/><text y="1.67" class="c">▕███████████████▏</text><text x="21.042" y="1.67" class="c">▏</text><text x="23.046" y="1.67" class="c">76/100</text></svg><svg x="4620"><use xlink:href="#a"/><text y="1.67" class="c">▕███████████████▍</text><text x="21.042" y="1.67" class="c">▏</text><text x="23.046" y="1.67" class="c">77/100</text></svg><svg x="4680"><use xlink:href="#a"/><text y="1.67" class="c">▕███████████████▌</text><text x="21.042" y="1.67" class="c">▏</text><text x="23.046" y="1.67" class="c">78/100</text></svg><svg x="4740"><use xlink:href="#a"/><text y="1.67" class="c">▕███████████████▊</text><text x="21.042" y="1.67" class="c">▏</text><text x="23.046" y="1.67" class="c">79/100</text></svg><svg x="4800"><use xlink:href="#a"/><text y="1.67" class="c">▕████████████████</text><text x="21.042" y="1.67" class="c">▏</text><text x="23.046" y="1.67" class="c">80/100</text></svg><svg x="4860"><use xlink:href="#a"/><text y="1.67" class="c">▕████████████████▏</text><text x="21.042" y="1.67" class="c">▏</text><text x="23.046" y="1.67" class="c">81/100</text></svg><svg x="4920"><use xlink:href="#a"/><text y="1.67" class="c">▕████████████████▍</text><text x="21.042" y="1.67" class="c">▏</text><text x="23.046" y="1.67" class="c">82/100</text></svg><svg x="4980"><use xlink:href="#a"/><text y="1.67" class="c">▕████████████████▌</text><text x="21.042" y="1.67" class="c">▏</text><text x="23.046" y="1.67" class="c">83/100</text></svg><svg x="5040"><use xlink:href="#a"/><text y="1.67" class="c">▕████████████████▊</text><text x="21.042" y="1.67" class="c">▏</text><text x="23.046" y="1.67" class="c">84/100</text></svg><svg x="5100"><use xlink:href="#a"/><text y="1.67" class="c">▕█████████████████</text><text x="21.042" y="1.67" class="c">▏</text><text x="23.046" y="1.67" class="c">85/100</text></svg><svg x="5160"><use xlink:href="#a"/><text y="1.67" class="c">▕█████████████████▏</text><text x="21.042" y="1.67" class="c">▏</text><text x="23.046" y="1.67" class="c">86/100</text></svg><svg x="5220"><use xlink:href="#a"/><text y="1.67" class="c">▕█████████████████▍</text><text x="21.042" y="1.67" class="c">▏</text><text x="23.046" y="1.67" class="c">87/100</text></svg><svg x="5280"><use xlink:href="#a"/><text y="1.67" class="c">▕█████████████████▌</text><text x="21.042" y="1.67" class="c">▏</text><text x="23.046" y="1.67" class="c">88/100</text></svg><svg x="5340"><use xlink:href="#a"/><text y="1.67" class="c">▕█████████████████▊</text><text x="21.042" y="1.67" class="c">▏</text><text x="23.046" y="1.67" class="c">89/100</text></svg><svg x="5400"><use xlink:href="#a"/><text y="1.67" class="c">▕██████████████████</text><text x="21.042" y="1.67" class="c">▏</text><text x="23.046" y="1.67" class="c">90/100</text></svg><svg x="5460"><use xlink:href="#a"/><text y="1.67" class="c">▕██████████████████▏</text><text x="21.042" y="1.67" class="c">▏</text><text x="23.046" y="1.67" class="c">91/100</text></svg><svg x="5520"><use xlink:href="#a"/><text y="1.67" class="c">▕██████████████████▍</text><text x="21.042" y="1.67" class="c">▏</text><text x="23.046" y="1.67" class="c">92/100</text></svg><svg x="5580"><use xlink:href="#a"/><text y="1.67" class="c">▕██████████████████▌</text><text x="21.042" y="1.67" class="c">▏</text><text x="23.046" y="1.67" class="c">93/100</text></svg><svg x="5640"><use xlink:href="#a"/><text y="1.67" class="c">▕██████████████████▊</text><text x="21.042" y="1.67" class="c">▏</text><text x="23.046" y="1.67" class="c">94/100</text></svg><svg x="5700"><use xlink:href="#a"/><text y="1.67" class="c">▕███████████████████</text><text x="21.042" y="1.67" class="c">▏</text><text x="23.046" y="1.67" class="c">95/100</text></svg><svg x="5760"><use xlink:href="#a"/><text y="1.67" class="c">▕███████████████████▏▏</text><text x="23.046" y="1.67" class="c">96/100</text></svg><svg x="5820"><use xlink:href="#a"/><text y="1.67" class="c">▕███████████████████▍▏</text><text x="23.046" y="1.67" class="c">97/100</text></svg><svg x="5880"><use xlink:href="#a"/><text y="1.67" class="c">▕███████████████████▌▏</text><text x="23.046" y="1.67" class="c">98/100</text></svg><svg x="5940"><use xlink:href="#a"/><text y="1.67" class="c">▕███████████████████▊▏</text><text x="23.046" y="1.67" class="c">99/100</text></svg><svg x="6000"><use xlink:href="#a"/><use xlink:href="#1"/></svg><svg x="6060"><use xlink:href="#a"/><use xlink:href="#1"/></svg></svg></g></g></svg></svg>