<svg xmlns="http://www.w3.org/2000/svg" xmlns:xlink="http://www.w3.org/1999/xlink" width="600" height="21.71"><rect width="600" height="21.71" rx="0" ry="0" class="a"/><svg height="21.71" viewBox="0 0 60 2.171" width="600" xmlns="http://www.w3.org/2000/svg" xmlns:xlink="http://www.w3.org/1999/xlink"><style>@keyframes e{0%{transform:translateX(0)}0.05%{transform:translateX(-60px)}0.55%{transform:translateX(-120px)}1.05%{transform:translateX(-180px)}1.55%{transform:translateX(-240px)}2.06%{transform:translateX(-300px)}2.56%{transform:translateX(-360px)}3.06%{transform:translateX(-420px)}3.56%{transform:translateX(-480px)}4.06%{transform:translateX(-540px)}4.56%{transform:translateX(-600px)}5.07%{transform:translateX(-660px)}5.57%{transform:translateX(-720px)}6.07%{transform:translateX(-780px)}6.57%{transform:translateX(-840px)}7.07%{transform:translateX(-900px)}7.57%{transform:translateX(-960px)}8.07%{transform:translateX(-1020px)}8.58%{transform:translateX(-1080px)}9.08%{transform:translateX(-1140px)}9.58%{transform:translateX(-1200px)}10.08%{transform:translateX(-1260px)}10.58%{transform:translateX(-1320px)}11.08%{transform:translateX(-1380px)}11.58%{transform:translateX(-1440px)}12.09%{transform:translateX(-1500px)}12.59%{transform:translateX(-1560px)}13.09%{transform:translateX(-1620px)}13.59%{transform:translateX(-1680px)}14.09%{transform:translateX(-1740px)}14.59%{transform:translateX(-1800px)}15.09%{transform:translateX(-1860px)}15.6%{transform:translateX(-1920px)}16.1%{transform:translateX(-1980px)}16.6%{transform:translateX(-2040px)}17.1%{transform:translateX(-2100px)}17.6%{transform:translateX(-2160px)}18.1%{transform:translateX(-2220px)}18.61%{transform:translateX(-2280px)}19.11%{transform:translateX(-2340px)}19.61%{transform:translateX(-2400px)}20.11%{transform:translateX(-2460px)}20.61%{transform:translateX(-2520px)}21.11%{transform:translateX(-2580px)}21.61%{transform:translateX(-2640px)}22.12%{transform:translateX(-2700px)}22.62%{transform:translateX(-2760px)}23.12%{transform:translateX(-2820px)}23.62%{transform:translateX(-2880px)}24.12%{transform:translateX(-2940px)}24.62%{transform:translateX(-3000px)}25.12%{transform:translateX(-3060px)}25.63%{transform:translateX(-3120px)}26.13%{transform:translateX(-3180px)}26.63%{transform:translateX(-3240px)}27.13%{transform:translateX(-3300px)}27.63%{transform:translateX(-3360px)}28.13%{transform:translateX(-3420px)}28.64%{transform:translateX(-3480px)}29.14%{transform:translateX(-3540px)}29.64%{transform:translateX(-3600px)}30.14%{transform:translateX(-3660px)}30.64%{transform:translateX(-3720px)}31.14%{transform:translateX(-3780px)}31.64%{transform:translateX(-3840px)}32.15%{transform:translateX(-3900px)}32.65%{transform:translateX(-3960px)}33.15%{transform:translateX(-4020px)}33.65%{transform:translateX(-4080px)}34.15%{transform:translateX(-4140px)}34.65%{transform:translateX(-4200px)}35.15%{transform:translateX(-4260px)}35.66%{transform:translateX(-4320px)}36.16%{transform:translateX(-4380px)}36.66%{transform:translateX(-4440px)}37.16%{transform:translateX(-4500px)}37.66%{transform:translateX(-4560px)}38.16%{transform:translateX(-4620px)}38.66%{transform:translateX(-4680px)}39.17%{transform:translateX(-4740px)}39.67%{transform:translateX(-4800px)}40.17%{transform:translateX(-4860px)}40.67%{transform:translateX(-4920px)}41.17%{transform:translateX(-4980px)}41.67%{transform:translateX(-5040px)}42.18%{transform:translateX(-5100px)}42.68%{transform:translateX(-5160px)}43.18%{transform:translateX(-5220px)}43.68%{transform:translateX(-5280px)}44.18%{transform:translateX(-5340px)}44.68%{transform:translateX(-5400px)}45.18%{transform:translateX(-5460px)}45.69%{transform:translateX(-5520px)}46.19%{transform:translateX(-5580px)}46.69%{transform:translateX(-5640px)}47.19%{transform:translateX(-5700px)}47.69%{transform:translateX(-5760px)}48.19%{transform:translateX(-5820px)}48.69%{transform:translateX(-5880px)}49.2%{transform:translateX(-5940px)}49.7%{transform:translateX(-6000px)}50.15%{transform:translateX(-6180px)} to{transform:translateX(-6180px)}}.a{fill:#282d35}.c,.g,.h{fill:#b9c0cb;white-space:pre}.g,.h{fill:gray}.h{fill:#c6c6c6}.i,.j,.l,.m,.n,.o{fill:#eee;white-space:pre}.j,.l,.m,.n,.o{fill:#e4e4e4}.l,.m,.n,.o{fill:#4e4e4e}.m,.n,.o{fill:#121212}.n,.o{fill:#080808}.o{fill:#303030}</style><g font-family="Monaco,Consolas,Menlo,'Bitstream Vera Sans Mono','Powerline Symbols',monospace" font-size="1.67"><defs><symbol id="1"><text y="1.67" class="c">▕████████████████████▏</text><text x="23.046" y="1.67" class="c">400/400</text></symbol><symbol id="a"><path fill="transparent" d="M0 0h60v2H0z"/></symbol></defs><path class="a" d="M0 0h60v2.171H0z"/><g style="animation-duration: 4.011957000000001s;animation-iteration-count:infinite;animation-name:e;animation-timing-function:steps(1,end)"><svg width="6240"><svg><use xlink:href="#a"/></svg><svg x="60"><use xlink:href="#a"/><text y="1.67" class="c">▕</text><text x="1.002" y="1.67" class="g">█</text><text x="2.004" y="1.67" class="h">█</text><text x="3.006" y="1.67" class="i">█</text><text x="4.008" y="1.67" class="j">█</text><text x="5.01" y="1.67" style="white-space:pre" fill="#a8a8a8">█</text><text x="6.012" y="1.67" class="l">█</text><text x="7.014" y="1.67" class="m">█</text><text x="8.016" y="1.67" class="n">█</text><text x="9.018" y="1.67" class="o">█</text><text x="10.02" y="1.67" class="g">█</text><text x="11.022" y="1.67" class="h">█</text><text x="12.024" y="1.67" class="i">█</text><text x="13.026" y="1.67" class="j">█</text><text x="14.028" y="1.67" style="white-space:pre" fill="#9e9e9e">█</text><text x="15.03" y="1.67" class="l">█</text><text x="16.032" y="1.67" class="m">█</text><text x="17.034" y="1.67" class="n">█</text><text x="18.036" y="1.67" class="o">█</text><text x="19.038" y="1.67" class="g">█</text><text x="20.04" y="1.67" style="white-space:pre" fill="#d0d0d0">█</text><text x="21.042" y="1.67" class="c">▏</text><text x="23.046" y="1.67" class="c">0/?</text></svg><svg x="120"><use xlink:href="#a"/><text y="1.67" class="c">▕▎</text><text x="21.042" y="1.67" class="c">▏</text><text x="23.046" y="1.67" class="c">6/400</text></svg><svg x="180"><use xlink:href="#a"/><text y="1.67" class="c">▕▌</text><text x="21.042" y="1.67" class="c">▏</text><text x="23.046" y="1.67" class="c">10/400</text></svg><svg x="240"><use xlink:href="#a"/><text y="1.67" class="c">▕▋</text><text x="21.042" y="1.67" class="c">▏</text><text x="23.046" y="1.67" class="c">14/400</text></svg><svg x="300"><use xlink:href="#a"/><text y="1.67" class="c">▕█</text><text x="21.042" y="1.67" class="c">▏</text><text x="23.046" y="1.67" class="c">20/400</text></svg><svg x="360"><use xlink:href="#a"/><text y="1.67" class="c">▕█▏</text><text x="21.042" y="1.67" class="c">▏</text><text x="23.046" y="1.67" class="c">24/400</text></svg><svg x="420"><use xlink:href="#a"/><text y="1.67" class="c">▕█▍</text><text x="21.042" y="1.67" class="c">▏</text><text x="23.046" y="1.67" class="c">28/400</text></svg><svg x="480"><use xlink:href="#a"/><text y="1.67" class="c">▕█▌</text><text x="21.042" y="1.67" class="c">▏</text><text x="23.046" y="1.67" class="c">32/400</text></svg><svg x="540"><use xlink:href="#a"/><text y="1.67" class="c">▕█▊</text><text x="21.042" y="1.67" class="c">▏</text><text x="23.046" y="1.67" class="c">36/400</text></svg><svg x="600"><use xlink:href="#a"/><text y="1.67" class="c">▕█▉</text><text x="21.042" y="1.67" class="c">▏</text><text x="23.046" y="1.67" class="c">39/400</text></svg><svg x="660"><use xlink:href="#a"/><text y="1.67" class="c">▕██▏</text><text x="21.042" y="1.67" class="c">▏</text><text x="23.046" y="1.67" class="c">44/400</text></svg><svg x="720"><use xlink:href="#a"/><text y="1.67" class="c">▕██▍</text><text x="21.042" y="1.67" class="c">▏</text><text x="23.046" y="1.67" class="c">48/400</text></svg><svg x="780"><use xlink:href="#a"/><text y="1.67" class="c">▕██▌</text><text x="21.042" y="1.67" class="c">▏</text><text x="23.046" y="1.67" class="c">52/400</text></svg><svg x="840"><use xlink:href="#a"/><text y="1.67" class="c">▕██▊</text><text x="21.042" y="1.67" class="c">▏</text><text x="23.046" y="1.67" class="c">56/400</text></svg><svg x="900"><use xlink:href="#a"/><text y="1.67" class="c">▕███</text><text x="21.042" y="1.67" class="c">▏</text><text x="23.046" y="1.67" class="c">60/400</text></svg><svg x="960"><use xlink:href="#a"/><text y="1.67" class="c">▕███▏</text><text x="21.042" y="1.67" class="c">▏</text><text x="23.046" y="1.67" class="c">64/400</text></svg><svg x="1020"><use xlink:href="#a"/><text y="1.67" class="c">▕███▍</text><text x="21.042" y="1.67" class="c">▏</text><text x="23.046" y="1.67" class="c">68/400</text></svg><svg x="1080"><use xlink:href="#a"/><text y="1.67" class="c">▕███▌</text><text x="21.042" y="1.67" class="c">▏</text><text x="23.046" y="1.67" class="c">72/400</text></svg><svg x="1140"><use xlink:href="#a"/><text y="1.67" class="c">▕███▊</text><text x="21.042" y="1.67" class="c">▏</text><text x="23.046" y="1.67" class="c">76/400</text></svg><svg x="1200"><use xlink:href="#a"/><text y="1.67" class="c">▕████</text><text x="21.042" y="1.67" class="c">▏</text><text x="23.046" y="1.67" class="c">80/400</text></svg><svg x="1260"><use xlink:href="#a"/><text y="1.67" class="c">▕████▏</text><text x="21.042" y="1.67" class="c">▏</text><text x="23.046" y="1.67" class="c">84/400</text></svg><svg x="1320"><use xlink:href="#a"/><text y="1.67" class="c">▕████▎</text><text x="21.042" y="1.67" class="c">▏</text><text x="23.046" y="1.67" class="c">86/400</text></svg><svg x="1380"><use xlink:href="#a"/><text y="1.67" class="c">▕████▌</text><text x="21.042" y="1.67" class="c">▏</text><text x="23.046" y="1.67" class="c">91/400</text></svg><svg x="1440"><use xlink:href="#a"/><text y="1.67" class="c">▕████▊</text><text x="21.042" y="1.67" class="c">▏</text><text x="23.046" y="1.67" class="c">96/400</text></svg><svg x="1500"><use xlink:href="#a"/><text y="1.67" class="c">▕█████</text><text x="21.042" y="1.67" class="c">▏</text><text x="23.046" y="1.67" class="c">100/400</text></svg><svg x="1560"><use xlink:href="#a"/><text y="1.67" class="c">▕█████▏</text><text x="21.042" y="1.67" class="c">▏</text><text x="23.046" y="1.67" class="c">104/400</text></svg><svg x="1620"><use xlink:href="#a"/><text y="1.67" class="c">▕█████▍</text><text x="21.042" y="1.67" class="c">▏</text><text x="23.046" y="1.67" class="c">108/400</text></svg><svg x="1680"><use xlink:href="#a"/><text y="1.67" class="c">▕█████▌</text><text x="21.042" y="1.67" class="c">▏</text><text x="23.046" y="1.67" class="c">112/400</text></svg><svg x="1740"><use xlink:href="#a"/><text y="1.67" class="c">▕█████▊</text><text x="21.042" y="1.67" class="c">▏</text><text x="23.046" y="1.67" class="c">114/400</text></svg><svg x="1800"><use xlink:href="#a"/><text y="1.67" class="c">▕█████▉</text><text x="21.042" y="1.67" class="c">▏</text><text x="23.046" y="1.67" class="c">119/400</text></svg><svg x="1860"><use xlink:href="#a"/><text y="1.67" class="c">▕██████▏</text><text x="21.042" y="1.67" class="c">▏</text><text x="23.046" y="1.67" class="c">123/400</text></svg><svg x="1920"><use xlink:href="#a"/><text y="1.67" class="c">▕██████▍</text><text x="21.042" y="1.67" class="c">▏</text><text x="23.046" y="1.67" class="c">128/400</text></svg><svg x="1980"><use xlink:href="#a"/><text y="1.67" class="c">▕██████▌</text><text x="21.042" y="1.67" class="c">▏</text><text x="23.046" y="1.67" class="c">132/400</text></svg><svg x="2040"><use xlink:href="#a"/><text y="1.67" class="c">▕██████▊</text><text x="21.042" y="1.67" class="c">▏</text><text x="23.046" y="1.67" class="c">136/400</text></svg><svg x="2100"><use xlink:href="#a"/><text y="1.67" class="c">▕███████</text><text x="21.042" y="1.67" class="c">▏</text><text x="23.046" y="1.67" class="c">140/400</text></svg><svg x="2160"><use xlink:href="#a"/><text y="1.67" class="c">▕███████▏</text><text x="21.042" y="1.67" class="c">▏</text><text x="23.046" y="1.67" class="c">144/400</text></svg><svg x="2220"><use xlink:href="#a"/><text y="1.67" class="c">▕███████▎</text><text x="21.042" y="1.67" class="c">▏</text><text x="23.046" y="1.67" class="c">145/400</text></svg><svg x="2280"><use xlink:href="#a"/><text y="1.67" class="c">▕███████▌</text><text x="21.042" y="1.67" class="c">▏</text><text x="23.046" y="1.67" class="c">152/400</text></svg><svg x="2340"><use xlink:href="#a"/><text y="1.67" class="c">▕███████▊</text><text x="21.042" y="1.67" class="c">▏</text><text x="23.046" y="1.67" class="c">156/400</text></svg><svg x="2400"><use xlink:href="#a"/><text y="1.67" class="c">▕███████▉</text><text x="21.042" y="1.67" class="c">▏</text><text x="23.046" y="1.67" class="c">158/400</text></svg><svg x="2460"><use xlink:href="#a"/><text y="1.67" class="c">▕████████▏</text><text x="21.042" y="1.67" class="c">▏</text><text x="23.046" y="1.67" class="c">164/400</text></svg><svg x="2520"><use xlink:href="#a"/><text y="1.67" class="c">▕████████▍</text><text x="21.042" y="1.67" class="c">▏</text><text x="23.046" y="1.67" class="c">168/400</text></svg><svg x="2580"><use xlink:href="#a"/><text y="1.67" class="c">▕████████▌</text><text x="21.042" y="1.67" class="c">▏</text><text x="23.046" y="1.67" class="c">172/400</text></svg><svg x="2640"><use xlink:href="#a"/><text y="1.67" class="c">▕████████▊</text><text x="21.042" y="1.67" class="c">▏</text><text x="23.046" y="1.67" class="c">176/400</text></svg><svg x="2700"><use xlink:href="#a"/><text y="1.67" class="c">▕█████████</text><text x="21.042" y="1.67" class="c">▏</text><text x="23.046" y="1.67" class="c">180/400</text></svg><svg x="2760"><use xlink:href="#a"/><text y="1.67" class="c">▕█████████▏</text><text x="21.042" y="1.67" class="c">▏</text><text x="23.046" y="1.67" class="c">184/400</text></svg><svg x="2820"><use xlink:href="#a"/><text y="1.67" class="c">▕█████████▍</text><text x="21.042" y="1.67" class="c">▏</text><text x="23.046" y="1.67" class="c">188/400</text></svg><svg x="2880"><use xlink:href="#a"/><text y="1.67" class="c">▕█████████▌</text><text x="21.042" y="1.67" class="c">▏</text><text x="23.046" y="1.67" class="c">192/400</text></svg><svg x="2940"><use xlink:href="#a"/><text y="1.67" class="c">▕█████████▊</text><text x="21.042" y="1.67" class="c">▏</text><text x="23.046" y="1.67" class="c">196/400</text></svg><svg x="3000"><use xlink:href="#a"/><text y="1.67" class="c">▕██████████</text><text x="21.042" y="1.67" class="c">▏</text><text x="23.046" y="1.67" class="c">200/400</text></svg><svg x="3060"><use xlink:href="#a"/><text y="1.67" class="c">▕██████████▏</text><text x="21.042" y="1.67" class="c">▏</text><text x="23.046" y="1.67" class="c">204/400</text></svg><svg x="3120"><use xlink:href="#a"/><text y="1.67" class="c">▕██████████▍</text><text x="21.042" y="1.67" class="c">▏</text><text x="23.046" y="1.67" class="c">208/400</text></svg><svg x="3180"><use xlink:href="#a"/><text y="1.67" class="c">▕██████████▌</text><text x="21.042" y="1.67" class="c">▏</text><text x="23.046" y="1.67" class="c">212/400</text></svg><svg x="3240"><use xlink:href="#a"/><text y="1.67" class="c">▕██████████▊</text><text x="21.042" y="1.67" class="c">▏</text><text x="23.046" y="1.67" class="c">216/400</text></svg><svg x="3300"><use xlink:href="#a"/><text y="1.67" class="c">▕███████████</text><text x="21.042" y="1.67" class="c">▏</text><text x="23.046" y="1.67" class="c">220/400</text></svg><svg x="3360"><use xlink:href="#a"/><text y="1.67" class="c">▕███████████▏</text><text x="21.042" y="1.67" class="c">▏</text><text x="23.046" y="1.67" class="c">224/400</text></svg><svg x="3420"><use xlink:href="#a"/><text y="1.67" class="c">▕███████████▍</text><text x="21.042" y="1.67" class="c">▏</text><text x="23.046" y="1.67" class="c">227/400</text></svg><svg x="3480"><use xlink:href="#a"/><text y="1.67" class="c">▕███████████▌</text><text x="21.042" y="1.67" class="c">▏</text><text x="23.046" y="1.67" class="c">231/400</text></svg><svg x="3540"><use xlink:href="#a"/><text y="1.67" class="c">▕███████████▊</text><text x="21.042" y="1.67" class="c">▏</text><text x="23.046" y="1.67" class="c">236/400</text></svg><svg x="3600"><use xlink:href="#a"/><text y="1.67" class="c">▕████████████</text><text x="21.042" y="1.67" class="c">▏</text><text x="23.046" y="1.67" class="c">240/400</text></svg><svg x="3660"><use xlink:href="#a"/><text y="1.67" class="c">▕████████████▏</text><text x="21.042" y="1.67" class="c">▏</text><text x="23.046" y="1.67" class="c">244/400</text></svg><svg x="3720"><use xlink:href="#a"/><text y="1.67" class="c">▕████████████▍</text><text x="21.042" y="1.67" class="c">▏</text><text x="23.046" y="1.67" class="c">248/400</text></svg><svg x="3780"><use xlink:href="#a"/><text y="1.67" class="c">▕████████████▌</text><text x="21.042" y="1.67" class="c">▏</text><text x="23.046" y="1.67" class="c">252/400</text></svg><svg x="3840"><use xlink:href="#a"/><text y="1.67" class="c">▕████████████▊</text><text x="21.042" y="1.67" class="c">▏</text><text x="23.046" y="1.67" class="c">256/400</text></svg><svg x="3900"><use xlink:href="#a"/><text y="1.67" class="c">▕█████████████</text><text x="21.042" y="1.67" class="c">▏</text><text x="23.046" y="1.67" class="c">260/400</text></svg><svg x="3960"><use xlink:href="#a"/><text y="1.67" class="c">▕█████████████▏</text><text x="21.042" y="1.67" class="c">▏</text><text x="23.046" y="1.67" class="c">264/400</text></svg><svg x="4020"><use xlink:href="#a"/><text y="1.67" class="c">▕█████████████▍</text><text x="21.042" y="1.67" class="c">▏</text><text x="23.046" y="1.67" class="c">268/400</text></svg><svg x="4080"><use xlink:href="#a"/><text y="1.67" class="c">▕█████████████▌</text><text x="21.042" y="1.67" class="c">▏</text><text x="23.046" y="1.67" class="c">272/400</text></svg><svg x="4140"><use xlink:href="#a"/><text y="1.67" class="c">▕█████████████▊</text><text x="21.042" y="1.67" class="c">▏</text><text x="23.046" y="1.67" class="c">276/400</text></svg><svg x="4200"><use xlink:href="#a"/><text y="1.67" class="c">▕██████████████</text><text x="21.042" y="1.67" class="c">▏</text><text x="23.046" y="1.67" class="c">280/400</text></svg><svg x="4260"><use xlink:href="#a"/><text y="1.67" class="c">▕██████████████▏</text><text x="21.042" y="1.67" class="c">▏</text><text x="23.046" y="1.67" class="c">284/400</text></svg><svg x="4320"><use xlink:href="#a"/><text y="1.67" class="c">▕██████████████▍</text><text x="21.042" y="1.67" class="c">▏</text><text x="23.046" y="1.67" class="c">288/400</text></svg><svg x="4380"><use xlink:href="#a"/><text y="1.67" class="c">▕██████████████▌</text><text x="21.042" y="1.67" class="c">▏</text><text x="23.046" y="1.67" class="c">292/400</text></svg><svg x="4440"><use xlink:href="#a"/><text y="1.67" class="c">▕██████████████▊</text><text x="21.042" y="1.67" class="c">▏</text><text x="23.046" y="1.67" class="c">296/400</text></svg><svg x="4500"><use xlink:href="#a"/><text y="1.67" class="c">▕███████████████</text><text x="21.042" y="1.67" class="c">▏</text><text x="23.046" y="1.67" class="c">300/400</text></svg><svg x="4560"><use xlink:href="#a"/><text y="1.67" class="c">▕███████████████▏</text><text x="21.042" y="1.67" class="c">▏</text><text x="23.046" y="1.67" class="c">304/400</text></svg><svg x="4620"><use xlink:href="#a"/><text y="1.67" class="c">▕███████████████▍</text><text x="21.042" y="1.67" class="c">▏</text><text x="23.046" y="1.67" class="c">308/400</text></svg><svg x="4680"><use xlink:href="#a"/><text y="1.67" class="c">▕███████████████▌</text><text x="21.042" y="1.67" class="c">▏</text><text x="23.046" y="1.67" class="c">312/400</text></svg><svg x="4740"><use xlink:href="#a"/><text y="1.67" class="c">▕███████████████▊</text><text x="21.042" y="1.67" class="c">▏</text><text x="23.046" y="1.67" class="c">316/400</text></svg><svg x="4800"><use xlink:href="#a"/><text y="1.67" class="c">▕████████████████</text><text x="21.042" y="1.67" class="c">▏</text><text x="23.046" y="1.67" class="c">320/400</text></svg><svg x="4860"><use xlink:href="#a"/><text y="1.67" class="c">▕████████████████▏</text><text x="21.042" y="1.67" class="c">▏</text><text x="23.046" y="1.67" class="c">324/400</text></svg><svg x="4920"><use xlink:href="#a"/><text y="1.67" class="c">▕████████████████▍</text><text x="21.042" y="1.67" class="c">▏</text><text x="23.046" y="1.67" class="c">328/400</text></svg><svg x="4980"><use xlink:href="#a"/><text y="1.67" class="c">▕████████████████▌</text><text x="21.042" y="1.67" class="c">▏</text><text x="23.046" y="1.67" class="c">332/400</text></svg><svg x="5040"><use xlink:href="#a"/><text y="1.67" class="c">▕████████████████▊</text><text x="21.042" y="1.67" class="c">▏</text><text x="23.046" y="1.67" class="c">336/400</text></svg><svg x="5100"><use xlink:href="#a"/><text y="1.67" class="c">▕█████████████████</text><text x="21.042" y="1.67" class="c">▏</text><text x="23.046" y="1.67" class="c">340/400</text></svg><svg x="5160"><use xlink:href="#a"/><text y="1.67" class="c">▕█████████████████▏</text><text x="21.042" y="1.67" class="c">▏</text><text x="23.046" y="1.67" class="c">344/400</text></svg><svg x="5220"><use xlink:href="#a"/><text y="1.67" class="c">▕█████████████████▍</text><text x="21.042" y="1.67" class="c">▏</text><text x="23.046" y="1.67" class="c">348/400</text></svg><svg x="5280"><use xlink:href="#a"/><text y="1.67" class="c">▕█████████████████▌</text><text x="21.042" y="1.67" class="c">▏</text><text x="23.046" y="1.67" class="c">352/400</text></svg><svg x="5340"><use xlink:href="#a"/><text y="1.67" class="c">▕█████████████████▊</text><text x="21.042" y="1.67" class="c">▏</text><text x="23.046" y="1.67" class="c">356/400</text></svg><svg x="5400"><use xlink:href="#a"/><text y="1.67" class="c">▕██████████████████</text><text x="21.042" y="1.67" class="c">▏</text><text x="23.046" y="1.67" class="c">360/400</text></svg><svg x="5460"><use xlink:href="#a"/><text y="1.67" class="c">▕██████████████████▏</text><text x="21.042" y="1.67" class="c">▏</text><text x="23.046" y="1.67" class="c">364/400</text></svg><svg x="5520"><use xlink:href="#a"/><text y="1.67" class="c">▕██████████████████▍</text><text x="21.042" y="1.67" class="c">▏</text><text x="23.046" y="1.67" class="c">368/400</text></svg><svg x="5580"><use xlink:href="#a"/><text y="1.67" class="c">▕██████████████████▌</text><text x="21.042" y="1.67" class="c">▏</text><text x="23.046" y="1.67" class="c">372/400</text></svg><svg x="5640"><use xlink:href="#a"/><text y="1.67" class="c">▕██████████████████▊</text><text x="21.042" y="1.67" class="c">▏</text><text x="23.046" y="1.67" class="c">376/400</text></svg><svg x="5700"><use xlink:href="#a"/><text y="1.67" class="c">▕███████████████████</text><text x="21.042" y="1.67" class="c">▏</text><text x="23.046" y="1.67" class="c">380/400</text></svg><svg x="5760"><use xlink:href="#a"/><text y="1.67" class="c">▕███████████████████▏▏</text><text x="23.046" y="1.67" class="c">384/400</text></svg><svg x="5820"><use xlink:href="#a"/><text y="1.67" class="c">▕███████████████████▍▏</text><text x="23.046" y="1.67" class="c">388/400</text></svg><svg x="5880"><use xlink:href="#a"/><text y="1.67" class="c">▕███████████████████▌▏</text><text x="23.046" y="1.67" class="c">392/400</text></svg><svg x="5940"><use xlink:href="#a"/><text y="1.67" class="c">▕███████████████████▊▏</text><text x="23.046" y="1.67" class="c">396/400</text></svg><svg x="6000"><use xlink:href="#a"/><use xlink:href="#1"/></svg><svg x="6060"><use xlink:href="#a"/><use xlink:href="#1"/></svg><svg x="6120"><use xlink:href="#a"/><use xlink:href="#1"/></svg><svg x="6180"><use xlink:href="#a"/><use xlink:href="#1"/></svg></svg></g></g></svg></svg>