<svg xmlns="http://www.w3.org/2000/svg" xmlns:xlink="http://www.w3.org/1999/xlink" width="600" height="21.71"><rect width="600" height="21.71" rx="0" ry="0" class="a"/><svg height="21.71" viewBox="0 0 60 2.171" width="600" xmlns="http://www.w3.org/2000/svg" xmlns:xlink="http://www.w3.org/1999/xlink"><style>@keyframes e{0%{transform:translateX(0)}0.06%{transform:translateX(-60px)}0.5%{transform:translateX(-120px)}0.95%{transform:translateX(-180px)}1.39%{transform:translateX(-240px)}1.84%{transform:translateX(-300px)}2.28%{transform:translateX(-360px)}2.73%{transform:translateX(-420px)}3.17%{transform:translateX(-480px)}3.62%{transform:translateX(-540px)}4.06%{transform:translateX(-600px)}4.51%{transform:translateX(-660px)}4.95%{transform:translateX(-720px)}5.4%{transform:translateX(-780px)}5.85%{transform:translateX(-840px)}6.29%{transform:translateX(-900px)}6.74%{transform:translateX(-960px)}7.18%{transform:translateX(-1020px)}7.63%{transform:translateX(-1080px)}8.07%{transform:translateX(-1140px)}8.96%{transform:translateX(-1200px)}9.41%{transform:translateX(-1260px)}9.85%{transform:translateX(-1320px)}10.3%{transform:translateX(-1380px)}10.74%{transform:translateX(-1440px)}11.19%{transform:translateX(-1500px)}11.64%{transform:translateX(-1560px)}12.08%{transform:translateX(-1620px)}12.53%{transform:translateX(-1680px)}12.97%{transform:translateX(-1740px)}13.42%{transform:translateX(-1800px)}13.86%{transform:translateX(-1860px)}14.31%{transform:translateX(-1920px)}14.75%{transform:translateX(-1980px)}15.2%{transform:translateX(-2040px)}15.64%{transform:translateX(-2100px)}16.09%{transform:translateX(-2160px)}16.53%{transform:translateX(-2220px)}16.98%{transform:translateX(-2280px)}17.43%{transform:translateX(-2340px)}17.87%{transform:translateX(-2400px)}18.32%{transform:translateX(-2460px)}18.76%{transform:translateX(-2520px)}19.21%{transform:translateX(-2580px)}19.65%{transform:translateX(-2640px)}20.1%{transform:translateX(-2700px)}20.54%{transform:translateX(-2760px)}20.99%{transform:translateX(-2820px)}21.43%{transform:translateX(-2880px)}21.88%{transform:translateX(-2940px)}22.32%{transform:translateX(-3000px)}23.22%{transform:translateX(-3060px)}23.66%{transform:translateX(-3120px)}24.55%{transform:translateX(-3180px)}25.0%{transform:translateX(-3240px)}25.89%{transform:translateX(-3300px)}26.33%{transform:translateX(-3360px)}27.22%{transform:translateX(-3420px)}27.67%{transform:translateX(-3480px)}28.56%{transform:translateX(-3540px)}29.01%{transform:translateX(-3600px)}29.9%{transform:translateX(-3660px)}30.34%{transform:translateX(-3720px)}31.23%{transform:translateX(-3780px)}31.68%{transform:translateX(-3840px)}32.57%{transform:translateX(-3900px)}33.01%{transform:translateX(-3960px)}33.9%{transform:translateX(-4020px)}34.35%{transform:translateX(-4080px)}35.24%{transform:translateX(-4140px)}35.69%{transform:translateX(-4200px)}36.58%{transform:translateX(-4260px)}37.02%{transform:translateX(-4320px)}37.91%{transform:translateX(-4380px)}38.36%{transform:translateX(-4440px)}39.25%{transform:translateX(-4500px)}39.69%{transform:translateX(-4560px)}40.59%{transform:translateX(-4620px)}41.03%{transform:translateX(-4680px)}41.92%{transform:translateX(-4740px)}42.37%{transform:translateX(-4800px)}43.26%{transform:translateX(-4860px)}43.7%{transform:translateX(-4920px)}44.59%{transform:translateX(-4980px)}45.04%{transform:translateX(-5040px)}45.93%{transform:translateX(-5100px)}46.38%{transform:translateX(-5160px)}47.27%{transform:translateX(-5220px)}47.71%{transform:translateX(-5280px)}48.6%{transform:translateX(-5340px)}49.05%{transform:translateX(-5400px)}49.94%{transform:translateX(-5460px)}50.38%{transform:translateX(-5520px)}51.27%{transform:translateX(-5580px)}51.72%{transform:translateX(-5640px)}52.61%{transform:translateX(-5700px)}53.06%{transform:translateX(-5760px)}53.95%{transform:translateX(-5820px)}54.39%{transform:translateX(-5880px)}55.28%{transform:translateX(-5940px)}55.67%{transform:translateX(-6000px)} to{transform:translateX(-6000px)}}.a{fill:#282d35}.c{fill:#b9c0cb;white-space:pre}</style><g font-family="Monaco,Consolas,Menlo,'Bitstream Vera Sans Mono','Powerline Symbols',monospace" font-size="1.67"><defs><symbol id="1"><text y="1.67" class="c">▕████████████████████▏</text><text x="23.046" y="1.67" class="c">100%</text><text x="28.056" y="1.67" class="c">Second</text><text x="35.07" y="1.67" class="c">part</text></symbol><symbol id="a"><path fill="transparent" d="M0 0h60v2H0z"/></symbol></defs><path class="a" d="M0 0h60v2.171H0z"/><g style="animation-duration: 4.511918s;animation-iteration-count:infinite;animation-name:e;animation-timing-function:steps(1,end)"><svg width="6060"><svg><use xlink:href="#a"/></svg><svg x="60"><use xlink:href="#a"/><text y="1.67" class="c">▕▏</text><text x="21.042" y="1.67" class="c">▏</text><text x="23.046" y="1.67" class="c">1%</text><text x="26.052" y="1.67" class="c">First</text><text x="32.064" y="1.67" class="c">part</text></svg><svg x="120"><use xlink:href="#a"/><text y="1.67" class="c">▕▍</text><text x="21.042" y="1.67" class="c">▏</text><text x="23.046" y="1.67" class="c">2%</text><text x="26.052" y="1.67" class="c">First</text><text x="32.064" y="1.67" class="c">part</text></svg><svg x="180"><use xlink:href="#a"/><text y="1.67" class="c">▕▌</text><text x="21.042" y="1.67" class="c">▏</text><text x="23.046" y="1.67" class="c">3%</text><text x="26.052" y="1.67" class="c">First</text><text x="32.064" y="1.67" class="c">part</text></svg><svg x="240"><use xlink:href="#a"/><text y="1.67" class="c">▕▊</text><text x="21.042" y="1.67" class="c">▏</text><text x="23.046" y="1.67" class="c">4%</text><text x="26.052" y="1.67" class="c">First</text><text x="32.064" y="1.67" class="c">part</text></svg><svg x="300"><use xlink:href="#a"/><text y="1.67" class="c">▕█</text><text x="21.042" y="1.67" class="c">▏</text><text x="23.046" y="1.67" class="c">5%</text><text x="26.052" y="1.67" class="c">First</text><text x="32.064" y="1.67" class="c">part</text></svg><svg x="360"><use xlink:href="#a"/><text y="1.67" class="c">▕█▏</text><text x="21.042" y="1.67" class="c">▏</text><text x="23.046" y="1.67" class="c">6%</text><text x="26.052" y="1.67" class="c">First</text><text x="32.064" y="1.67" class="c">part</text></svg><svg x="420"><use xlink:href="#a"/><text y="1.67" class="c">▕█▍</text><text x="21.042" y="1.67" class="c">▏</text><text x="23.046" y="1.67" class="c">7%</text><text x="26.052" y="1.67" class="c">First</text><text x="32.064" y="1.67" class="c">part</text></svg><svg x="480"><use xlink:href="#a"/><text y="1.67" class="c">▕█▌</text><text x="21.042" y="1.67" class="c">▏</text><text x="23.046" y="1.67" class="c">8%</text><text x="26.052" y="1.67" class="c">First</text><text x="32.064" y="1.67" class="c">part</text></svg><svg x="540"><use xlink:href="#a"/><text y="1.67" class="c">▕█▊</text><text x="21.042" y="1.67" class="c">▏</text><text x="23.046" y="1.67" class="c">9%</text><text x="26.052" y="1.67" class="c">First</text><text x="32.064" y="1.67" class="c">part</text></svg><svg x="600"><use xlink:href="#a"/><text y="1.67" class="c">▕██</text><text x="21.042" y="1.67" class="c">▏</text><text x="23.046" y="1.67" class="c">10%</text><text x="27.054" y="1.67" class="c">First</text><text x="33.066" y="1.67" class="c">part</text></svg><svg x="660"><use xlink:href="#a"/><text y="1.67" class="c">▕██▏</text><text x="21.042" y="1.67" class="c">▏</text><text x="23.046" y="1.67" class="c">11%</text><text x="27.054" y="1.67" class="c">First</text><text x="33.066" y="1.67" class="c">part</text></svg><svg x="720"><use xlink:href="#a"/><text y="1.67" class="c">▕██▍</text><text x="21.042" y="1.67" class="c">▏</text><text x="23.046" y="1.67" class="c">12%</text><text x="27.054" y="1.67" class="c">First</text><text x="33.066" y="1.67" class="c">part</text></svg><svg x="780"><use xlink:href="#a"/><text y="1.67" class="c">▕██▌</text><text x="21.042" y="1.67" class="c">▏</text><text x="23.046" y="1.67" class="c">13%</text><text x="27.054" y="1.67" class="c">First</text><text x="33.066" y="1.67" class="c">part</text></svg><svg x="840"><use xlink:href="#a"/><text y="1.67" class="c">▕██▊</text><text x="21.042" y="1.67" class="c">▏</text><text x="23.046" y="1.67" class="c">14%</text><text x="27.054" y="1.67" class="c">First</text><text x="33.066" y="1.67" class="c">part</text></svg><svg x="900"><use xlink:href="#a"/><text y="1.67" class="c">▕███</text><text x="21.042" y="1.67" class="c">▏</text><text x="23.046" y="1.67" class="c">15%</text><text x="27.054" y="1.67" class="c">First</text><text x="33.066" y="1.67" class="c">part</text></svg><svg x="960"><use xlink:href="#a"/><text y="1.67" class="c">▕███▏</text><text x="21.042" y="1.67" class="c">▏</text><text x="23.046" y="1.67" class="c">16%</text><text x="27.054" y="1.67" class="c">First</text><text x="33.066" y="1.67" class="c">part</text></svg><svg x="1020"><use xlink:href="#a"/><text y="1.67" class="c">▕███▍</text><text x="21.042" y="1.67" class="c">▏</text><text x="23.046" y="1.67" class="c">17%</text><text x="27.054" y="1.67" class="c">First</text><text x="33.066" y="1.67" class="c">part</text></svg><svg x="1080"><use xlink:href="#a"/><text y="1.67" class="c">▕███▌</text><text x="21.042" y="1.67" class="c">▏</text><text x="23.046" y="1.67" class="c">18%</text><text x="27.054" y="1.67" class="c">First</text><text x="33.066" y="1.67" class="c">part</text></svg><svg x="1140"><use xlink:href="#a"/><text y="1.67" class="c">▕███▊</text><text x="21.042" y="1.67" class="c">▏</text><text x="23.046" y="1.67" class="c">19%</text><text x="27.054" y="1.67" class="c">First</text><text x="33.066" y="1.67" class="c">part</text></svg><svg x="1200"><use xlink:href="#a"/><text y="1.67" class="c">▕████</text><text x="21.042" y="1.67" class="c">▏</text><text x="23.046" y="1.67" class="c">20%</text><text x="27.054" y="1.67" class="c">First</text><text x="33.066" y="1.67" class="c">part</text></svg><svg x="1260"><use xlink:href="#a"/><text y="1.67" class="c">▕████▏</text><text x="21.042" y="1.67" class="c">▏</text><text x="23.046" y="1.67" class="c">21%</text><text x="27.054" y="1.67" class="c">First</text><text x="33.066" y="1.67" class="c">part</text></svg><svg x="1320"><use xlink:href="#a"/><text y="1.67" class="c">▕████▍</text><text x="21.042" y="1.67" class="c">▏</text><text x="23.046" y="1.67" class="c">22%</text><text x="27.054" y="1.67" class="c">First</text><text x="33.066" y="1.67" class="c">part</text></svg><svg x="1380"><use xlink:href="#a"/><text y="1.67" class="c">▕████▌</text><text x="21.042" y="1.67" class="c">▏</text><text x="23.046" y="1.67" class="c">23%</text><text x="27.054" y="1.67" class="c">First</text><text x="33.066" y="1.67" class="c">part</text></svg><svg x="1440"><use xlink:href="#a"/><text y="1.67" class="c">▕████▊</text><text x="21.042" y="1.67" class="c">▏</text><text x="23.046" y="1.67" class="c">25%</text><text x="27.054" y="1.67" class="c">First</text><text x="33.066" y="1.67" class="c">part</text></svg><svg x="1500"><use xlink:href="#a"/><text y="1.67" class="c">▕█████▏</text><text x="21.042" y="1.67" class="c">▏</text><text x="23.046" y="1.67" class="c">26%</text><text x="27.054" y="1.67" class="c">First</text><text x="33.066" y="1.67" class="c">part</text></svg><svg x="1560"><use xlink:href="#a"/><text y="1.67" class="c">▕█████▍</text><text x="21.042" y="1.67" class="c">▏</text><text x="23.046" y="1.67" class="c">27%</text><text x="27.054" y="1.67" class="c">First</text><text x="33.066" y="1.67" class="c">part</text></svg><svg x="1620"><use xlink:href="#a"/><text y="1.67" class="c">▕█████▌</text><text x="21.042" y="1.67" class="c">▏</text><text x="23.046" y="1.67" class="c">28%</text><text x="27.054" y="1.67" class="c">First</text><text x="33.066" y="1.67" class="c">part</text></svg><svg x="1680"><use xlink:href="#a"/><text y="1.67" class="c">▕█████▊</text><text x="21.042" y="1.67" class="c">▏</text><text x="23.046" y="1.67" class="c">28%</text><text x="27.054" y="1.67" class="c">First</text><text x="33.066" y="1.67" class="c">part</text></svg><svg x="1740"><use xlink:href="#a"/><text y="1.67" class="c">▕██████</text><text x="21.042" y="1.67" class="c">▏</text><text x="23.046" y="1.67" class="c">30%</text><text x="27.054" y="1.67" class="c">First</text><text x="33.066" y="1.67" class="c">part</text></svg><svg x="1800"><use xlink:href="#a"/><text y="1.67" class="c">▕██████▏</text><text x="21.042" y="1.67" class="c">▏</text><text x="23.046" y="1.67" class="c">31%</text><text x="27.054" y="1.67" class="c">First</text><text x="33.066" y="1.67" class="c">part</text></svg><svg x="1860"><use xlink:href="#a"/><text y="1.67" class="c">▕██████▍</text><text x="21.042" y="1.67" class="c">▏</text><text x="23.046" y="1.67" class="c">32%</text><text x="27.054" y="1.67" class="c">First</text><text x="33.066" y="1.67" class="c">part</text></svg><svg x="1920"><use xlink:href="#a"/><text y="1.67" class="c">▕██████▌</text><text x="21.042" y="1.67" class="c">▏</text><text x="23.046" y="1.67" class="c">33%</text><text x="27.054" y="1.67" class="c">First</text><text x="33.066" y="1.67" class="c">part</text></svg><svg x="1980"><use xlink:href="#a"/><text y="1.67" class="c">▕██████▊</text><text x="21.042" y="1.67" class="c">▏</text><text x="23.046" y="1.67" class="c">34%</text><text x="27.054" y="1.67" class="c">First</text><text x="33.066" y="1.67" class="c">part</text></svg><svg x="2040"><use xlink:href="#a"/><text y="1.67" class="c">▕███████</text><text x="21.042" y="1.67" class="c">▏</text><text x="23.046" y="1.67" class="c">35%</text><text x="27.054" y="1.67" class="c">First</text><text x="33.066" y="1.67" class="c">part</text></svg><svg x="2100"><use xlink:href="#a"/><text y="1.67" class="c">▕███████▏</text><text x="21.042" y="1.67" class="c">▏</text><text x="23.046" y="1.67" class="c">36%</text><text x="27.054" y="1.67" class="c">First</text><text x="33.066" y="1.67" class="c">part</text></svg><svg x="2160"><use xlink:href="#a"/><text y="1.67" class="c">▕███████▍</text><text x="21.042" y="1.67" class="c">▏</text><text x="23.046" y="1.67" class="c">37%</text><text x="27.054" y="1.67" class="c">First</text><text x="33.066" y="1.67" class="c">part</text></svg><svg x="2220"><use xlink:href="#a"/><text y="1.67" class="c">▕███████▌</text><text x="21.042" y="1.67" class="c">▏</text><text x="23.046" y="1.67" class="c">38%</text><text x="27.054" y="1.67" class="c">First</text><text x="33.066" y="1.67" class="c">part</text></svg><svg x="2280"><use xlink:href="#a"/><text y="1.67" class="c">▕███████▊</text><text x="21.042" y="1.67" class="c">▏</text><text x="23.046" y="1.67" class="c">39%</text><text x="27.054" y="1.67" class="c">First</text><text x="33.066" y="1.67" class="c">part</text></svg><svg x="2340"><use xlink:href="#a"/><text y="1.67" class="c">▕████████</text><text x="21.042" y="1.67" class="c">▏</text><text x="23.046" y="1.67" class="c">40%</text><text x="27.054" y="1.67" class="c">First</text><text x="33.066" y="1.67" class="c">part</text></svg><svg x="2400"><use xlink:href="#a"/><text y="1.67" class="c">▕████████▏</text><text x="21.042" y="1.67" class="c">▏</text><text x="23.046" y="1.67" class="c">41%</text><text x="27.054" y="1.67" class="c">First</text><text x="33.066" y="1.67" class="c">part</text></svg><svg x="2460"><use xlink:href="#a"/><text y="1.67" class="c">▕████████▍</text><text x="21.042" y="1.67" class="c">▏</text><text x="23.046" y="1.67" class="c">42%</text><text x="27.054" y="1.67" class="c">First</text><text x="33.066" y="1.67" class="c">part</text></svg><svg x="2520"><use xlink:href="#a"/><text y="1.67" class="c">▕████████▌</text><text x="21.042" y="1.67" class="c">▏</text><text x="23.046" y="1.67" class="c">43%</text><text x="27.054" y="1.67" class="c">First</text><text x="33.066" y="1.67" class="c">part</text></svg><svg x="2580"><use xlink:href="#a"/><text y="1.67" class="c">▕████████▊</text><text x="21.042" y="1.67" class="c">▏</text><text x="23.046" y="1.67" class="c">44%</text><text x="27.054" y="1.67" class="c">First</text><text x="33.066" y="1.67" class="c">part</text></svg><svg x="2640"><use xlink:href="#a"/><text y="1.67" class="c">▕█████████</text><text x="21.042" y="1.67" class="c">▏</text><text x="23.046" y="1.67" class="c">45%</text><text x="27.054" y="1.67" class="c">First</text><text x="33.066" y="1.67" class="c">part</text></svg><svg x="2700"><use xlink:href="#a"/><text y="1.67" class="c">▕█████████▏</text><text x="21.042" y="1.67" class="c">▏</text><text x="23.046" y="1.67" class="c">46%</text><text x="27.054" y="1.67" class="c">First</text><text x="33.066" y="1.67" class="c">part</text></svg><svg x="2760"><use xlink:href="#a"/><text y="1.67" class="c">▕█████████▍</text><text x="21.042" y="1.67" class="c">▏</text><text x="23.046" y="1.67" class="c">47%</text><text x="27.054" y="1.67" class="c">First</text><text x="33.066" y="1.67" class="c">part</text></svg><svg x="2820"><use xlink:href="#a"/><text y="1.67" class="c">▕█████████▌</text><text x="21.042" y="1.67" class="c">▏</text><text x="23.046" y="1.67" class="c">48%</text><text x="27.054" y="1.67" class="c">First</text><text x="33.066" y="1.67" class="c">part</text></svg><svg x="2880"><use xlink:href="#a"/><text y="1.67" class="c">▕█████████▊</text><text x="21.042" y="1.67" class="c">▏</text><text x="23.046" y="1.67" class="c">49%</text><text x="27.054" y="1.67" class="c">First</text><text x="33.066" y="1.67" class="c">part</text></svg><svg x="2940"><use xlink:href="#a"/><text y="1.67" class="c">▕██████████</text><text x="21.042" y="1.67" class="c">▏</text><text x="23.046" y="1.67" class="c">50%</text><text x="27.054" y="1.67" class="c">Second</text><text x="34.068" y="1.67" class="c">part</text></svg><svg x="3000"><use xlink:href="#a"/><text y="1.67" class="c">▕██████████▏</text><text x="21.042" y="1.67" class="c">▏</text><text x="23.046" y="1.67" class="c">51%</text><text x="27.054" y="1.67" class="c">Second</text><text x="34.068" y="1.67" class="c">part</text></svg><svg x="3060"><use xlink:href="#a"/><text y="1.67" class="c">▕██████████▍</text><text x="21.042" y="1.67" class="c">▏</text><text x="23.046" y="1.67" class="c">52%</text><text x="27.054" y="1.67" class="c">Second</text><text x="34.068" y="1.67" class="c">part</text></svg><svg x="3120"><use xlink:href="#a"/><text y="1.67" class="c">▕██████████▌</text><text x="21.042" y="1.67" class="c">▏</text><text x="23.046" y="1.67" class="c">53%</text><text x="27.054" y="1.67" class="c">Second</text><text x="34.068" y="1.67" class="c">part</text></svg><svg x="3180"><use xlink:href="#a"/><text y="1.67" class="c">▕██████████▊</text><text x="21.042" y="1.67" class="c">▏</text><text x="23.046" y="1.67" class="c">54%</text><text x="27.054" y="1.67" class="c">Second</text><text x="34.068" y="1.67" class="c">part</text></svg><svg x="3240"><use xlink:href="#a"/><text y="1.67" class="c">▕███████████</text><text x="21.042" y="1.67" class="c">▏</text><text x="23.046" y="1.67" class="c">55%</text><text x="27.054" y="1.67" class="c">Second</text><text x="34.068" y="1.67" class="c">part</text></svg><svg x="3300"><use xlink:href="#a"/><text y="1.67" class="c">▕███████████▏</text><text x="21.042" y="1.67" class="c">▏</text><text x="23.046" y="1.67" class="c">56%</text><text x="27.054" y="1.67" class="c">Second</text><text x="34.068" y="1.67" class="c">part</text></svg><svg x="3360"><use xlink:href="#a"/><text y="1.67" class="c">▕███████████▍</text><text x="21.042" y="1.67" class="c">▏</text><text x="23.046" y="1.67" class="c">57%</text><text x="27.054" y="1.67" class="c">Second</text><text x="34.068" y="1.67" class="c">part</text></svg><svg x="3420"><use xlink:href="#a"/><text y="1.67" class="c">▕███████████▌</text><text x="21.042" y="1.67" class="c">▏</text><text x="23.046" y="1.67" class="c">57%</text><text x="27.054" y="1.67" class="c">Second</text><text x="34.068" y="1.67" class="c">part</text></svg><svg x="3480"><use xlink:href="#a"/><text y="1.67" class="c">▕███████████▊</text><text x="21.042" y="1.67" class="c">▏</text><text x="23.046" y="1.67" class="c">59%</text><text x="27.054" y="1.67" class="c">Second</text><text x="34.068" y="1.67" class="c">part</text></svg><svg x="3540"><use xlink:href="#a"/><text y="1.67" class="c">▕████████████</text><text x="21.042" y="1.67" class="c">▏</text><text x="23.046" y="1.67" class="c">60%</text><text x="27.054" y="1.67" class="c">Second</text><text x="34.068" y="1.67" class="c">part</text></svg><svg x="3600"><use xlink:href="#a"/><text y="1.67" class="c">▕████████████▏</text><text x="21.042" y="1.67" class="c">▏</text><text x="23.046" y="1.67" class="c">61%</text><text x="27.054" y="1.67" class="c">Second</text><text x="34.068" y="1.67" class="c">part</text></svg><svg x="3660"><use xlink:href="#a"/><text y="1.67" class="c">▕████████████▍</text><text x="21.042" y="1.67" class="c">▏</text><text x="23.046" y="1.67" class="c">62%</text><text x="27.054" y="1.67" class="c">Second</text><text x="34.068" y="1.67" class="c">part</text></svg><svg x="3720"><use xlink:href="#a"/><text y="1.67" class="c">▕████████████▌</text><text x="21.042" y="1.67" class="c">▏</text><text x="23.046" y="1.67" class="c">63%</text><text x="27.054" y="1.67" class="c">Second</text><text x="34.068" y="1.67" class="c">part</text></svg><svg x="3780"><use xlink:href="#a"/><text y="1.67" class="c">▕████████████▊</text><text x="21.042" y="1.67" class="c">▏</text><text x="23.046" y="1.67" class="c">64%</text><text x="27.054" y="1.67" class="c">Second</text><text x="34.068" y="1.67" class="c">part</text></svg><svg x="3840"><use xlink:href="#a"/><text y="1.67" class="c">▕█████████████</text><text x="21.042" y="1.67" class="c">▏</text><text x="23.046" y="1.67" class="c">65%</text><text x="27.054" y="1.67" class="c">Second</text><text x="34.068" y="1.67" class="c">part</text></svg><svg x="3900"><use xlink:href="#a"/><text y="1.67" class="c">▕█████████████▏</text><text x="21.042" y="1.67" class="c">▏</text><text x="23.046" y="1.67" class="c">66%</text><text x="27.054" y="1.67" class="c">Second</text><text x="34.068" y="1.67" class="c">part</text></svg><svg x="3960"><use xlink:href="#a"/><text y="1.67" class="c">▕█████████████▍</text><text x="21.042" y="1.67" class="c">▏</text><text x="23.046" y="1.67" class="c">67%</text><text x="27.054" y="1.67" class="c">Second</text><text x="34.068" y="1.67" class="c">part</text></svg><svg x="4020"><use xlink:href="#a"/><text y="1.67" class="c">▕█████████████▌</text><text x="21.042" y="1.67" class="c">▏</text><text x="23.046" y="1.67" class="c">68%</text><text x="27.054" y="1.67" class="c">Second</text><text x="34.068" y="1.67" class="c">part</text></svg><svg x="4080"><use xlink:href="#a"/><text y="1.67" class="c">▕█████████████▊</text><text x="21.042" y="1.67" class="c">▏</text><text x="23.046" y="1.67" class="c">69%</text><text x="27.054" y="1.67" class="c">Second</text><text x="34.068" y="1.67" class="c">part</text></svg><svg x="4140"><use xlink:href="#a"/><text y="1.67" class="c">▕██████████████</text><text x="21.042" y="1.67" class="c">▏</text><text x="23.046" y="1.67" class="c">70%</text><text x="27.054" y="1.67" class="c">Second</text><text x="34.068" y="1.67" class="c">part</text></svg><svg x="4200"><use xlink:href="#a"/><text y="1.67" class="c">▕██████████████▏</text><text x="21.042" y="1.67" class="c">▏</text><text x="23.046" y="1.67" class="c">71%</text><text x="27.054" y="1.67" class="c">Second</text><text x="34.068" y="1.67" class="c">part</text></svg><svg x="4260"><use xlink:href="#a"/><text y="1.67" class="c">▕██████████████▍</text><text x="21.042" y="1.67" class="c">▏</text><text x="23.046" y="1.67" class="c">72%</text><text x="27.054" y="1.67" class="c">Second</text><text x="34.068" y="1.67" class="c">part</text></svg><svg x="4320"><use xlink:href="#a"/><text y="1.67" class="c">▕██████████████▌</text><text x="21.042" y="1.67" class="c">▏</text><text x="23.046" y="1.67" class="c">73%</text><text x="27.054" y="1.67" class="c">Second</text><text x="34.068" y="1.67" class="c">part</text></svg><svg x="4380"><use xlink:href="#a"/><text y="1.67" class="c">▕██████████████▊</text><text x="21.042" y="1.67" class="c">▏</text><text x="23.046" y="1.67" class="c">74%</text><text x="27.054" y="1.67" class="c">Second</text><text x="34.068" y="1.67" class="c">part</text></svg><svg x="4440"><use xlink:href="#a"/><text y="1.67" class="c">▕███████████████</text><text x="21.042" y="1.67" class="c">▏</text><text x="23.046" y="1.67" class="c">75%</text><text x="27.054" y="1.67" class="c">Second</text><text x="34.068" y="1.67" class="c">part</text></svg><svg x="4500"><use xlink:href="#a"/><text y="1.67" class="c">▕███████████████▏</text><text x="21.042" y="1.67" class="c">▏</text><text x="23.046" y="1.67" class="c">76%</text><text x="27.054" y="1.67" class="c">Second</text><text x="34.068" y="1.67" class="c">part</text></svg><svg x="4560"><use xlink:href="#a"/><text y="1.67" class="c">▕███████████████▍</text><text x="21.042" y="1.67" class="c">▏</text><text x="23.046" y="1.67" class="c">77%</text><text x="27.054" y="1.67" class="c">Second</text><text x="34.068" y="1.67" class="c">part</text></svg><svg x="4620"><use xlink:href="#a"/><text y="1.67" class="c">▕███████████████▌</text><text x="21.042" y="1.67" class="c">▏</text><text x="23.046" y="1.67" class="c">78%</text><text x="27.054" y="1.67" class="c">Second</text><text x="34.068" y="1.67" class="c">part</text></svg><svg x="4680"><use xlink:href="#a"/><text y="1.67" class="c">▕███████████████▊</text><text x="21.042" y="1.67" class="c">▏</text><text x="23.046" y="1.67" class="c">79%</text><text x="27.054" y="1.67" class="c">Second</text><text x="34.068" y="1.67" class="c">part</text></svg><svg x="4740"><use xlink:href="#a"/><text y="1.67" class="c">▕████████████████</text><text x="21.042" y="1.67" class="c">▏</text><text x="23.046" y="1.67" class="c">80%</text><text x="27.054" y="1.67" class="c">Second</text><text x="34.068" y="1.67" class="c">part</text></svg><svg x="4800"><use xlink:href="#a"/><text y="1.67" class="c">▕████████████████▏</text><text x="21.042" y="1.67" class="c">▏</text><text x="23.046" y="1.67" class="c">81%</text><text x="27.054" y="1.67" class="c">Second</text><text x="34.068" y="1.67" class="c">part</text></svg><svg x="4860"><use xlink:href="#a"/><text y="1.67" class="c">▕████████████████▍</text><text x="21.042" y="1.67" class="c">▏</text><text x="23.046" y="1.67" class="c">82%</text><text x="27.054" y="1.67" class="c">Second</text><text x="34.068" y="1.67" class="c">part</text></svg><svg x="4920"><use xlink:href="#a"/><text y="1.67" class="c">▕████████████████▌</text><text x="21.042" y="1.67" class="c">▏</text><text x="23.046" y="1.67" class="c">83%</text><text x="27.054" y="1.67" class="c">Second</text><text x="34.068" y="1.67" class="c">part</text></svg><svg x="4980"><use xlink:href="#a"/><text y="1.67" class="c">▕████████████████▊</text><text x="21.042" y="1.67" class="c">▏</text><text x="23.046" y="1.67" class="c">84%</text><text x="27.054" y="1.67" class="c">Second</text><text x="34.068" y="1.67" class="c">part</text></svg><svg x="5040"><use xlink:href="#a"/><text y="1.67" class="c">▕█████████████████</text><text x="21.042" y="1.67" class="c">▏</text><text x="23.046" y="1.67" class="c">85%</text><text x="27.054" y="1.67" class="c">Second</text><text x="34.068" y="1.67" class="c">part</text></svg><svg x="5100"><use xlink:href="#a"/><text y="1.67" class="c">▕█████████████████▏</text><text x="21.042" y="1.67" class="c">▏</text><text x="23.046" y="1.67" class="c">86%</text><text x="27.054" y="1.67" class="c">Second</text><text x="34.068" y="1.67" class="c">part</text></svg><svg x="5160"><use xlink:href="#a"/><text y="1.67" class="c">▕█████████████████▍</text><text x="21.042" y="1.67" class="c">▏</text><text x="23.046" y="1.67" class="c">87%</text><text x="27.054" y="1.67" class="c">Second</text><text x="34.068" y="1.67" class="c">part</text></svg><svg x="5220"><use xlink:href="#a"/><text y="1.67" class="c">▕█████████████████▌</text><text x="21.042" y="1.67" class="c">▏</text><text x="23.046" y="1.67" class="c">88%</text><text x="27.054" y="1.67" class="c">Second</text><text x="34.068" y="1.67" class="c">part</text></svg><svg x="5280"><use xlink:href="#a"/><text y="1.67" class="c">▕█████████████████▊</text><text x="21.042" y="1.67" class="c">▏</text><text x="23.046" y="1.67" class="c">89%</text><text x="27.054" y="1.67" class="c">Second</text><text x="34.068" y="1.67" class="c">part</text></svg><svg x="5340"><use xlink:href="#a"/><text y="1.67" class="c">▕██████████████████</text><text x="21.042" y="1.67" class="c">▏</text><text x="23.046" y="1.67" class="c">90%</text><text x="27.054" y="1.67" class="c">Second</text><text x="34.068" y="1.67" class="c">part</text></svg><svg x="5400"><use xlink:href="#a"/><text y="1.67" class="c">▕██████████████████▏</text><text x="21.042" y="1.67" class="c">▏</text><text x="23.046" y="1.67" class="c">90%</text><text x="27.054" y="1.67" class="c">Second</text><text x="34.068" y="1.67" class="c">part</text></svg><svg x="5460"><use xlink:href="#a"/><text y="1.67" class="c">▕██████████████████▍</text><text x="21.042" y="1.67" class="c">▏</text><text x="23.046" y="1.67" class="c">92%</text><text x="27.054" y="1.67" class="c">Second</text><text x="34.068" y="1.67" class="c">part</text></svg><svg x="5520"><use xlink:href="#a"/><text y="1.67" class="c">▕██████████████████▌</text><text x="21.042" y="1.67" class="c">▏</text><text x="23.046" y="1.67" class="c">93%</text><text x="27.054" y="1.67" class="c">Second</text><text x="34.068" y="1.67" class="c">part</text></svg><svg x="5580"><use xlink:href="#a"/><text y="1.67" class="c">▕██████████████████▊</text><text x="21.042" y="1.67" class="c">▏</text><text x="23.046" y="1.67" class="c">94%</text><text x="27.054" y="1.67" class="c">Second</text><text x="34.068" y="1.67" class="c">part</text></svg><svg x="5640"><use xlink:href="#a"/><text y="1.67" class="c">▕███████████████████</text><text x="21.042" y="1.67" class="c">▏</text><text x="23.046" y="1.67" class="c">95%</text><text x="27.054" y="1.67" class="c">Second</text><text x="34.068" y="1.67" class="c">part</text></svg><svg x="5700"><use xlink:href="#a"/><text y="1.67" class="c">▕███████████████████▏▏</text><text x="23.046" y="1.67" class="c">96%</text><text x="27.054" y="1.67" class="c">Second</text><text x="34.068" y="1.67" class="c">part</text></svg><svg x="5760"><use xlink:href="#a"/><text y="1.67" class="c">▕███████████████████▍▏</text><text x="23.046" y="1.67" class="c">97%</text><text x="27.054" y="1.67" class="c">Second</text><text x="34.068" y="1.67" class="c">part</text></svg><svg x="5820"><use xlink:href="#a"/><text y="1.67" class="c">▕███████████████████▌▏</text><text x="23.046" y="1.67" class="c">98%</text><text x="27.054" y="1.67" class="c">Second</text><text x="34.068" y="1.67" class="c">part</text></svg><svg x="5880"><use xlink:href="#a"/><text y="1.67" class="c">▕███████████████████▊▏</text><text x="23.046" y="1.67" class="c">99%</text><text x="27.054" y="1.67" class="c">Second</text><text x="34.068" y="1.67" class="c">part</text></svg><svg x="5940"><use xlink:href="#a"/><use xlink:href="#1"/></svg><svg x="6000"><use xlink:href="#a"/><use xlink:href="#1"/></svg></svg></g></g></svg></svg>